<?xml version="1.0" encoding="UTF-8"?><svg id="_レイヤー_2" xmlns="http://www.w3.org/2000/svg" viewBox="0 0 264.87 287.19"><defs><style>.cls-1{fill:#f90315;}.cls-2{fill:#fff;}</style></defs><g id="Layer_1"><path class="cls-1" d="M33.45,88.76c0,94.74,27.22,128.77,68.97,163.81l55.23-1.52c38.88-28.66,78.42-68.28,81.38-162.06,3.6-114.01-205.58-123.15-205.58-.24Z"/><path class="cls-2" d="M135.87,30.38c-27.04,0-48.95,21.92-48.95,48.96s21.92,48.96,48.95,48.96,48.96-21.92,48.96-48.96-21.91-48.96-48.96-48.96Z"/><path d="M156.07,55.93c-7.78,1.46-12.91,8.95-11.45,16.72,1.46,7.78,8.94,12.91,16.73,11.45,7.78-1.46,12.9-8.94,11.44-16.72-1.46-7.78-8.94-12.91-16.72-11.45Z"/><path class="cls-2" d="M161.39,61.22c-1.97.37-3.26,2.26-2.9,4.23.37,1.97,2.27,3.26,4.23,2.89,1.97-.37,3.27-2.26,2.9-4.23-.37-1.96-2.26-3.26-4.23-2.89Z"/><path class="cls-1" d="M99.8,286.54c-14.92,1.84-57.99-.23-71.55-6.13,0,0,63.71-45.64,104.51-27.89,0,0,.99,29.83-32.96,34.01Z"/><path class="cls-1" d="M161.6,286.54c14.93,1.84,57.99-.23,71.55-6.13,0,0-63.7-45.64-104.51-27.89,0,0-.99,29.83,32.96,34.01Z"/><path d="M64.31,108.67s20.43,42.14,71.3,42.14c21.89,0,45.95-3,66.39-42.51,0,0-3.29,82.76-66.47,80.96-16.36-.47-55.96,2.96-71.22-80.59Z"/><path class="cls-1" d="M3.66,144.32s21.13-72.23,49.9-57.02c0,0,14.98,19.97-28.96,65.34-37.54,38.77-20.94-8.32-20.94-8.32Z"/><path class="cls-1" d="M262.67,144.41s-14.7-73.81-44.69-61.19c0,0-16.67,18.57,23.1,67.63,33.99,41.92,21.59-6.45,21.59-6.45Z"/><path class="cls-2" d="M141.97,150.7v9.12c0,9.06,5.08,6.98,11.35,6.98s11.35,2.07,11.35-6.98v-13.37c-7.6,2.95-15.24,3.95-22.69,4.25ZM101.64,159.82c0,9.06,5.08,6.98,11.35,6.98s11.35,2.07,11.35-6.98v-9.75c-8.56-1.12-16.11-3.44-22.7-6.47v16.22Z"/></g></svg>