<?xml version="1.0" encoding="UTF-8"?><svg id="_レイヤー_2" xmlns="http://www.w3.org/2000/svg" viewBox="0 0 321.09 282.51"><defs><style>.cls-1{fill:#332627;}.cls-2{fill:#e86792;}.cls-3{fill:#fff;}.cls-4{fill:#fff100;}</style></defs><g id="Layer_1"><path class="cls-4" d="M252.31,81.79l9.65-25.46-17.82,5.41v-26.72l-21.92,5.99-4.06-23.06-22.27,8.91-3.09-20.59-19.8,14.19L157.17,0l-12.87,18.48L126.81.99l-8.25,23.1-18.81-15.51-4.29,25.74-24.42-12.21,3.63,27.05-26.39-10.23,8.58,30.35-22.8-2.42,14.38,21.06s30.69-35.14,77.7-49.49c0,0,76.61-15.25,126.15,43.35Z"/><path class="cls-4" d="M39.41,132.85c0,62.67,24.42,114.91,113.48,113.47,86.17-1.39,113.48-50.8,113.48-113.47S215.56,19.37,152.89,19.37s-113.48,50.81-113.48,113.48Z"/><path class="cls-4" d="M181.54,241.96c0,21.09-1.98,38.44,9.9,38.18,10.89-.24,9.9-17.09,9.9-38.18s-4.44-38.18-9.9-38.18-9.9,17.09-9.9,38.18Z"/><path class="cls-4" d="M181.88,267.45c-.79,17.26,11.87,14.95,25.06,14.95s23.89-3.9,23.89-8.72-10.7-8.71-23.89-8.71-24.84-2.32-25.06,2.48Z"/><path class="cls-4" d="M128.08,241.96c0,21.09,1.98,38.44-9.9,38.18-10.89-.24-9.9-17.09-9.9-38.18s4.43-38.18,9.9-38.18,9.9,17.09,9.9,38.18Z"/><path class="cls-4" d="M127.74,267.45c.78,17.26-11.87,14.95-25.06,14.95s-23.88-3.9-23.88-8.72,10.69-8.71,23.88-8.71,24.84-2.32,25.06,2.48Z"/><path class="cls-3" d="M155.67,97.03c0,21.95,17.79,39.74,39.74,39.74s39.74-17.79,39.74-39.74-17.79-39.74-39.74-39.74-39.74,17.79-39.74,39.74Z"/><path d="M165.51,98.43c0,7.31,5.93,13.24,13.24,13.24s13.25-5.93,13.25-13.24-5.93-13.24-13.25-13.24-13.24,5.93-13.24,13.24Z"/><path class="cls-3" d="M172.58,92.41c0,2.08,1.69,3.76,3.76,3.76s3.76-1.69,3.76-3.76-1.69-3.77-3.76-3.77-3.76,1.69-3.76,3.77Z"/><path class="cls-3" d="M71.41,99.9c0,21.95,17.79,39.73,39.74,39.73s39.74-17.79,39.74-39.73-17.79-39.74-39.74-39.74-39.74,17.79-39.74,39.74Z"/><path d="M81.25,101.3c0,7.32,5.93,13.25,13.25,13.25s13.25-5.93,13.25-13.25-5.93-13.25-13.25-13.25-13.25,5.93-13.25,13.25Z"/><path class="cls-3" d="M88.32,95.28c0,2.08,1.68,3.76,3.76,3.76s3.76-1.69,3.76-3.76-1.68-3.76-3.76-3.76-3.76,1.69-3.76,3.76Z"/><path class="cls-4" d="M243.88,121.96l9.33-12.93,42.36,42.36c6.26-1.04,16.95-5.16,21.92-1.23,8.59,6.79.1,11.89-7.62,12.81,19.17.69,6.5,26.83-5.3,7.3,4.79,11.01-6.29,20.75-11.97,10.53-3.62-6.52-5.37-11.03-6.01-16.13l-42.71-42.71Z"/><path class="cls-4" d="M77.22,121.96l-9.34-12.93-42.36,42.36c-6.26-1.04-16.95-5.16-21.92-1.23-8.59,6.79-.09,11.89,7.62,12.81-19.17.69-6.5,26.83,5.31,7.3-4.79,11.01,6.29,20.75,11.97,10.53,3.62-6.52,5.37-11.03,6.01-16.13l42.71-42.71Z"/><path class="cls-2" d="M130.26,175.58c-26.57-1.44-15.8,28.72-17.95,43.09-4.31,29.44-26.57,5.03-24.42-15.08,2.15-14.36,11.49-24.42,21.54-33.75l20.83,5.74Z"/><path d="M116.84,172.55c-8.02,4.35-12.96,13.81-15.99,22.04-3.09,8.38-5.32,19.9.34,27.72.05.07-.18.04-.21-.01-5.48-7.57-3.51-18.4-.77-26.62,2.86-8.58,8.12-18.71,16.4-23.21.06-.03.25.06.22.08h0Z"/><path class="cls-1" d="M249.27,121.44c-.43,4.73-2.24,9.46-4.23,13.71-5,10.67-13.37,19.42-23.16,25.86-16.7,10.99-37.17,15.07-56.84,16.25-14.76.89-29.68.24-44.14-3.05-12.35-2.81-24.25-7.77-34.54-15.22-12.04-8.72-21.1-20.77-27.07-34.31-.37-.84.87-1.57,1.24-.72,8.41,19.08,22.85,34.04,41.87,42.64,15.31,6.92,32.35,9.4,49.04,9.58,31.75.36,69.87-6.37,88.58-35,3.72-5.69,7.2-13.14,7.8-19.73.08-.91,1.52-.92,1.44,0h0Z"/></g></svg>