<?xml version="1.0" encoding="UTF-8"?><svg id="_レイヤー_2" xmlns="http://www.w3.org/2000/svg" viewBox="0 0 324.08 280.33"><defs><style>.cls-1{fill:#fff;}.cls-2{fill:#bed63a;}.cls-3{fill:#aaba36;}</style></defs><g id="Layer_1"><path class="cls-2" d="M208.57,33.25c0,17.99,14.58,32.57,32.57,32.57s32.57-14.58,32.57-32.57S259.12.68,241.13.68s-32.57,14.58-32.57,32.57Z"/><path class="cls-3" d="M224.25,33.25c0,9.33,7.56,16.89,16.89,16.89s16.89-7.56,16.89-16.89-7.56-16.89-16.89-16.89-16.89,7.56-16.89,16.89Z"/><path class="cls-2" d="M113.27,33.25c0,17.99-14.58,32.57-32.57,32.57s-32.57-14.58-32.57-32.57S62.71.68,80.7.68s32.57,14.58,32.57,32.57Z"/><path class="cls-3" d="M97.59,33.25c0,9.33-7.56,16.89-16.89,16.89s-16.89-7.56-16.89-16.89,7.56-16.89,16.89-16.89,16.89,7.56,16.89,16.89Z"/><path class="cls-3" d="M251.7,126.94c7.24-27.34,55.49-39.41,72.37-15.28-8.04-1.61-17.84-2.72-24.8.13,7.24,1.61,13.54,8.72,13.54,15.96-7.24-2.41-16.08-4.02-24.12-3.22,6.43,4.83,9.65,11.26,9.65,18.49-8.85-11.26-32.97-20.91-43.43-7.24l-3.22-8.84Z"/><path class="cls-3" d="M72.37,126.94c-7.24-27.34-55.49-39.41-72.37-15.28,8.04-1.61,17.84-2.72,24.8.13-7.24,1.61-13.55,8.72-13.55,15.96,7.24-2.41,16.08-4.02,24.13-3.22-6.44,4.83-9.65,11.26-9.65,18.49,8.85-11.26,32.97-20.91,43.43-7.24l3.21-8.84Z"/><path class="cls-2" d="M65.84,112.45C77.3,63.23,77.22-1.4,165.23.02c64.49,1.04,88.3,50.53,93.67,100.09,4.03,37.18,17.32,69.8,8.37,100-12.82,43.26-76.5,58.59-108.56,57.9-30.32-.65-78.65-2.58-102.13-60.31-7.86-19.32,2.6-56.66,9.26-85.25Z"/><path class="cls-1" d="M126.16,35.07c9.23,0,16.71,7.49,16.71,16.72s-7.48,16.72-16.71,16.72-16.72-7.48-16.72-16.72,7.48-16.72,16.72-16.72Z"/><path d="M119.26,43.8c2.66.5,4.41,3.05,3.91,5.71-.5,2.66-3.05,4.41-5.71,3.91-2.65-.5-4.41-3.05-3.91-5.71.5-2.66,3.05-4.41,5.71-3.91Z"/><path class="cls-1" d="M117.44,45.6c.67.13,1.11.77.99,1.44-.12.67-.77,1.11-1.44.99-.67-.13-1.12-.77-.99-1.44.13-.67.77-1.11,1.44-.99Z"/><path class="cls-1" d="M197.93,38.39c9.23,0,16.71,7.48,16.71,16.72s-7.48,16.72-16.71,16.72-16.72-7.49-16.72-16.72,7.48-16.72,16.72-16.72Z"/><path d="M191.03,47.12c2.66.5,4.41,3.05,3.91,5.71-.5,2.66-3.05,4.41-5.71,3.91-2.66-.5-4.4-3.06-3.91-5.71.5-2.65,3.05-4.41,5.71-3.91Z"/><path class="cls-1" d="M189.21,48.92c.67.13,1.11.77.99,1.44-.13.67-.77,1.12-1.44.99-.67-.12-1.11-.77-.99-1.44.13-.67.77-1.11,1.44-.99Z"/><path class="cls-1" d="M162.34,12.46c10.23,0,18.52,8.29,18.52,18.53s-8.29,18.53-18.52,18.53-18.53-8.29-18.53-18.53,8.29-18.53,18.53-18.53Z"/><path d="M154.7,22.13c2.94.55,4.89,3.39,4.33,6.33-.55,2.94-3.38,4.88-6.33,4.33-2.94-.55-4.88-3.38-4.33-6.33.55-2.94,3.39-4.88,6.33-4.33Z"/><path class="cls-1" d="M152.69,24.13c.74.14,1.24.85,1.1,1.6-.14.75-.86,1.24-1.6,1.1-.74-.14-1.24-.85-1.09-1.6.14-.74.85-1.23,1.6-1.09Z"/><path class="cls-1" d="M159.93,56.18c10.23,0,18.52,8.3,18.52,18.53s-8.29,18.53-18.52,18.53-18.53-8.3-18.53-18.53,8.29-18.53,18.53-18.53Z"/><path d="M152.28,65.85c2.95.55,4.89,3.39,4.33,6.33-.55,2.95-3.38,4.88-6.33,4.33-2.94-.55-4.88-3.38-4.33-6.33.55-2.94,3.38-4.88,6.33-4.33Z"/><path class="cls-1" d="M150.27,67.85c.75.14,1.24.86,1.1,1.6-.14.75-.86,1.23-1.6,1.1-.74-.14-1.24-.86-1.09-1.6.14-.74.86-1.23,1.6-1.1Z"/><path class="cls-1" d="M204.7,114.37s-8.52,18.02-9.54,20.32c0,0-3.58-10.97-6.45-20.47l15.98.15Z"/><path class="cls-1" d="M117.14,114.37s8.52,18.02,9.54,20.32c0,0,3.58-10.97,6.45-20.47l-15.98.15Z"/><path d="M213.91,115.27c.67,0,1.21-.54,1.21-1.21h0c0-.67-.54-1.2-1.21-1.2h-106.15c-.66,0-1.21.54-1.21,1.2h0c0,.67.54,1.21,1.21,1.21h106.15Z"/><path class="cls-2" d="M207.57,236.7h5.54v35.43c3.42-1.73,8.05-3.07,13.17-3.07,10.49,0,19,5.61,19,8.71s-8.51,2.51-19,2.51-19,.59-19-2.51l.29-41.07Z"/><path class="cls-2" d="M114.1,236.7h-5.54v35.43c-3.42-1.73-8.05-3.07-13.17-3.07-10.49,0-19,5.61-19,8.71s8.51,2.51,19,2.51,19,.59,19-2.51l-.29-41.07Z"/></g></svg>