<?xml version="1.0" encoding="UTF-8"?><svg id="_レイヤー_2" xmlns="http://www.w3.org/2000/svg" viewBox="0 0 301.71 287.19"><defs><style>.cls-1{fill:#332627;}.cls-2{fill:#398c8e;}.cls-3{fill:#e86792;}.cls-4{fill:#1ccaff;}.cls-5{fill:#fff;}</style></defs><g id="Layer_1"><path class="cls-4" d="M107.07,246.32h-5.19v33.2c-3.2-1.62-7.54-2.87-12.34-2.87-9.83,0-17.8,5.26-17.8,8.16s7.97,2.35,17.8,2.35,17.8.55,17.8-2.35l-.27-38.48Z"/><path class="cls-4" d="M194.64,246.32h5.19v33.2c3.2-1.62,7.54-2.87,12.34-2.87,9.83,0,17.8,5.26,17.8,8.16s-7.97,2.35-17.8,2.35-17.8.55-17.8-2.35l.27-38.48Z"/><path class="cls-4" d="M242.76,125.47c-10.74-46.12-24.1-105.34-93.12-105.34-44.56,0-79.18,47.34-84.21,93.77-3.78,34.84-9.96,83.76-1.58,112.06,12.01,40.53,91.9,38.06,91.9,38.06,0,0,72.33,4.9,91.16-38.06,7.84-17.89,2.08-73.72-4.16-100.5Z"/><path class="cls-4" d="M38.51,78.12c-8.42-10.99-15.05-22.85-19.81-35.37l.07-.05c1.99-1.95,8.85-8.27,8.55-11.29-.63-6.26-8.98-3.88-11.25,1.07.67-3.74-.97-9.28-5.28-9.03-6.1.17-2.7,10.1-.43,13.15-3.09-2.53-11.05-7.85-10.32-.5.41,4.09,8.19,6.51,12.74,8.4,3.46,9.43,8.02,19.06,13.76,28.08,9.89,15.53,28,33.74,41.74,43.42l16.31-2.49c-3.35-.89-6.76-2.52-9.83-4.1-14.46-7.42-26.45-18.49-36.27-31.3Z"/><path class="cls-4" d="M291.35,36.6c2.27-3.05,5.66-12.98-.43-13.15-4.31-.24-5.95,5.29-5.28,9.03-2.26-4.95-10.62-7.34-11.25-1.07-.3,3.03,6.56,9.35,8.55,11.29l.07.05c-4.76,12.52-11.4,24.38-19.81,35.37-9.81,12.81-21.8,23.88-36.26,31.3-3.07,1.58-6.48,3.2-9.83,4.1l16.31,2.49c13.74-9.68,31.85-27.89,41.74-43.42,5.74-9.02,10.31-18.65,13.76-28.08,4.55-1.89,12.33-4.31,12.74-8.4.74-7.35-7.22-2.03-10.31.5Z"/><path class="cls-5" d="M132.77,49.77c-9.58,0-17.35,7.77-17.35,17.36s7.77,17.36,17.35,17.36,17.36-7.77,17.36-17.36-7.77-17.36-17.36-17.36Z"/><path d="M139.93,58.83c-2.76.52-4.58,3.17-4.06,5.93.52,2.76,3.17,4.58,5.93,4.06,2.76-.52,4.57-3.17,4.06-5.93-.52-2.76-3.17-4.57-5.93-4.06Z"/><path class="cls-5" d="M141.82,60.7c-.7.13-1.16.8-1.03,1.5.13.7.8,1.16,1.5,1.03.7-.13,1.16-.8,1.03-1.5-.13-.7-.8-1.16-1.5-1.02Z"/><path class="cls-5" d="M168.94,49.77c-9.59,0-17.35,7.77-17.35,17.36s7.77,17.36,17.35,17.36,17.36-7.77,17.36-17.36-7.77-17.36-17.36-17.36Z"/><path d="M158.86,58.83c-2.76.52-4.58,3.17-4.06,5.93.52,2.76,3.17,4.58,5.93,4.06,2.76-.52,4.58-3.17,4.06-5.93-.52-2.76-3.17-4.57-5.93-4.06Z"/><path class="cls-5" d="M160.75,60.7c-.7.13-1.16.8-1.03,1.5.13.7.8,1.16,1.5,1.03.7-.13,1.16-.8,1.03-1.5-.13-.7-.8-1.16-1.5-1.02Z"/><path class="cls-2" d="M101.91,53.32c6.81-7.19,7.17-13.44,7.17-13.44-13.8-4.46-26.34-29.22-12.52-38.63,1.38-.94,1.12-1.6-.58-1.05-24.29,7.87-28.16,48.32-6.95,60.91,0,0,6.16-.68,12.88-7.79Z"/><path class="cls-2" d="M204.32,53.32c-6.81-7.19-7.17-13.44-7.17-13.44,13.8-4.46,26.34-29.22,12.52-38.63-1.38-.94-1.12-1.6.58-1.05,24.29,7.87,28.16,48.32,6.95,60.91,0,0-6.15-.68-12.88-7.79Z"/><path class="cls-1" d="M208.35,109.85c1.12-25.4-17.22-22.81-38.5-20.04-15.61,2.61-25.83-1.67-41.35-2.58-18.08-1.06-37.23,7.14-35.01,28.49,1.85,18.55,26.34,30.17,43.88,30.73,20.39.65,45.92,1.34,59.25-13,3.6-3.88,11.26-13,11.73-23.6Z"/><path class="cls-3" d="M148.43,106.26c-21.67,2.83-39.7,12.12-48.5,23.58,8.84,10.18,24.9,16.21,37.43,16.61,20.39.65,45.92,1.34,59.25-13,2.31-2.49,6.29-7.14,8.97-12.95-10.25-11.38-32.5-17.46-57.16-14.24Z"/><path class="cls-5" d="M100.57,97.11c2.07,3.11,5.33,5.04,7.04,4.41,1.84-.71,3.03-4.86,2.18-8.86,1.58,3.77,4.93,6.5,6.83,6.04,1.9-.49,3.56-4.48,3.18-8.55,1.13,3.93,4.14,7.03,6.08,6.79,1.94-.27,4.05-4.04,4.14-8.12.68,4.03,3.3,7.46,5.26,7.45,1.96-.04,4.5-3.54,5.06-7.59.21,4.08,2.43,7.79,4.38,8.01,1.91.18,4.75-2.84,5.85-6.65-6.93-.84-13.74-2.3-22.08-2.79-3.03-.18-6.1-.09-9.09.27,0,.21,0,.43.01.67-.07-.24-.15-.45-.24-.64-3.53.45-6.95,1.29-10.09,2.54.01.21.04.42.09.66-.1-.21-.19-.41-.3-.58-6.43,2.63-11.63,7.05-14.07,13.53,1.83,1.5,3.89,2.18,4.97,1.63,1.57-.82,2.15-4.8.78-8.2ZM194.38,125.06c-1.52.9-1.91,4.91-.36,8.23-2.23-3-5.59-4.77-7.26-4.05-1.8.8-2.78,5.01-1.73,8.96-1.78-3.68-5.26-6.24-7.14-5.68-1.87.58-3.32,4.65-2.74,8.7-1.33-3.87-4.49-6.81-6.42-6.47-1.92.37-3.84,4.24-3.72,8.32-.88-3.99-3.68-7.28-5.63-7.17-1.96.14-4.33,3.79-4.67,7.88-.66-3.66-2.84-6.73-4.65-6.83-2.02-.09-4.91,3.44-5.64,7.6-.15-3.83-2.03-7.29-3.88-7.62-2.04-.33-5.42,2.92-6.59,7.06.2-4.23-1.86-8.32-3.87-8.68-2.11-.34-5.63,3.13-6.7,7.44-.11.46-.17.86-.2,1.23,3.51,1.08,7.03,1.82,10.4,2.2.02-.04.03-.09.05-.13,0,.05,0,.09,0,.14,1.27.14,2.51.24,3.73.27,5.57.18,11.53.36,17.51.24,0-.05.01-.1.01-.16.01.06.03.1.05.15,3.43-.07,6.87-.25,10.25-.58.06-.3.09-.65.09-1.04.09.39.2.72.34,1,3.43-.35,6.8-.87,10.04-1.6.05-.37.05-.79,0-1.29.17.47.37.85.58,1.15,3.4-.81,6.65-1.88,9.66-3.27-.02-.29-.07-.61-.15-.96.16.31.32.58.49.8,3.27-1.54,6.25-3.49,8.85-5.91-.02-.04-.04-.09-.06-.13,0-.01-.02-.03-.02-.04.04.05.09.08.13.13.51-.48,1.01-.97,1.49-1.49,1.2-1.29,2.84-3.16,4.52-5.46-2.17-2.48-5.36-3.74-6.75-2.94ZM120.99,133.9c-1.99-.71-6,2-7.86,5.96,3.17,1.64,6.52,3,9.89,4.05.03-.08.05-.16.08-.25,1.21-4.27-.1-9.02-2.1-9.77ZM169.85,89.81c-2.96.49-5.72.74-8.36.81.57,4.04,3.11,7.52,5.09,7.56,2.06.02,4.89-3.68,5.44-7.92,1.07,3.77,3.84,6.75,5.75,6.59,1.88-.18,4.06-3.52,4.51-7.35,1.17,3.5,3.76,6.19,5.57,6.04,1.85-.18,3.99-3.41,4.48-7.16-.24,3.64,1.44,7.18,3.17,7.53,1.62.3,4.27-1.99,5.54-5.11-7.11-4.2-18.64-2.63-31.19-1ZM112.78,130.51c-1.64-.93-5.61.85-7.85,4.07,2.44,1.95,5.15,3.68,8.01,5.18.06-.11.12-.23.18-.35,1.72-3.56,1.3-7.94-.34-8.9ZM154.12,98.2c2.09.45,5.78-2.84,7.07-7.09.05-.17.09-.33.13-.49-3.72.09-7.21-.18-10.66-.59-.17,3.97,1.59,7.74,3.47,8.17Z"/></g></svg>