<?xml version="1.0" encoding="UTF-8"?><svg id="_レイヤー_2" xmlns="http://www.w3.org/2000/svg" viewBox="0 0 297.44 287.19"><defs><style>.cls-1{fill:#e86792;}.cls-2{fill:#fff;}</style></defs><g id="Layer_1"><path class="cls-1" d="M105.56,246.9h-5.12v32.73c-3.15-1.6-7.44-2.83-12.16-2.83-9.69,0-17.55,5.18-17.55,8.04s7.86,2.32,17.55,2.32,17.55.54,17.55-2.32l-.27-37.94Z"/><path class="cls-1" d="M191.88,246.9h5.12v32.73c3.16-1.6,7.44-2.83,12.16-2.83,9.69,0,17.55,5.18,17.55,8.04s-7.86,2.32-17.55,2.32-17.55.54-17.55-2.32l.27-37.94Z"/><path class="cls-1" d="M239.32,127.76c-4.73-20.33-9.99-43.24-20.43-62.36-5.34-18.94-8.13-39.78,14.15-47.58-11.14-10.03-34.54-1.11-49.02,0,4.46-5.57,5.57-12.25,11.14-17.83-17.83,0-31.2,8.91-47.91,15.6,2.23-3.34,2.23-11.14,3.34-14.48-14.48,4.46-23.4,14.48-35.65,22.28,0-2.23-2.23-7.8-2.23-10.03-15.99,10.99-39.81,58.42-44.55,84.16-1.74,6.21-2.98,12.53-3.66,18.83-3.72,34.34-9.82,82.58-1.55,110.48,11.84,39.96,90.6,37.53,90.6,37.53,0,0,71.3,4.83,89.87-37.53,7.73-17.64,2.05-72.67-4.1-99.08Z"/><path class="cls-1" d="M37.97,142.8c-8.3,10.83-14.84,22.52-19.53,34.87l.07.05c1.96,1.92,8.73,8.15,8.43,11.13-.62,6.18-8.85,3.82-11.09-1.06.66,3.68-.96,9.14-5.2,8.9-6.01-.17-2.66-9.95-.43-12.96-3.05,2.49-10.9,7.74-10.17.49.4-4.03,8.08-6.42,12.56-8.28,3.4-9.3,7.9-18.79,13.57-27.68,9.75-15.31,27.6-33.26,41.15-42.81l16.08,2.45c-3.3.88-6.66,2.48-9.69,4.04-14.26,7.31-26.08,18.23-35.75,30.86Z"/><path class="cls-1" d="M287.22,40.15c2.24-3.01,5.58-12.79-.43-12.96-4.25-.24-5.86,5.22-5.2,8.91-2.23-4.88-10.47-7.24-11.09-1.06-.3,2.99,6.46,9.22,8.43,11.13l.07.05c-4.69,12.34-11.23,24.04-19.53,34.87-9.67,12.63-21.5,23.54-35.75,30.86-3.03,1.55-6.38,3.16-9.68,4.04l16.08,2.45c13.55-9.55,31.4-27.5,41.15-42.81,5.66-8.89,10.16-18.38,13.57-27.68,4.49-1.86,12.15-4.25,12.56-8.28.72-7.25-7.12-2-10.17.49Z"/><path class="cls-2" d="M97.87,62.49c-9.45,0-17.11,7.66-17.11,17.11s7.66,17.11,17.11,17.11,17.11-7.66,17.11-17.11-7.66-17.11-17.11-17.11Z"/><path d="M104.93,71.42c-2.72.51-4.51,3.13-4,5.84.51,2.72,3.13,4.51,5.85,4,2.72-.51,4.51-3.13,4-5.85-.51-2.72-3.12-4.51-5.84-4Z"/><path class="cls-2" d="M106.79,73.27c-.69.13-1.14.79-1.01,1.48.13.69.79,1.14,1.48,1.01.69-.13,1.14-.79,1.01-1.48-.13-.69-.79-1.14-1.48-1.01Z"/><path class="cls-2" d="M132.79,44.77c-9.45,0-17.11,7.66-17.11,17.11s7.66,17.11,17.11,17.11,17.11-7.66,17.11-17.11-7.66-17.11-17.11-17.11Z"/><path d="M139.85,53.7c-2.72.51-4.51,3.13-4,5.84.51,2.72,3.12,4.51,5.84,4,2.72-.51,4.51-3.13,4-5.85-.51-2.72-3.12-4.51-5.84-4Z"/><path class="cls-2" d="M141.71,55.55c-.69.13-1.14.79-1.01,1.48.13.69.79,1.14,1.48,1.01.69-.13,1.14-.79,1.01-1.48-.13-.68-.79-1.14-1.48-1.01Z"/><path class="cls-2" d="M129.34,83.1c-9.45,0-17.11,7.66-17.11,17.11s7.66,17.11,17.11,17.11,17.11-7.66,17.11-17.11-7.66-17.11-17.11-17.11Z"/><path d="M136.4,92.03c-2.72.51-4.51,3.13-4,5.84.51,2.72,3.13,4.51,5.85,4,2.72-.51,4.51-3.13,4-5.85-.51-2.72-3.12-4.51-5.84-4Z"/><path class="cls-2" d="M138.26,93.88c-.69.13-1.14.79-1.01,1.48.13.69.79,1.14,1.48,1.01.69-.13,1.14-.79,1.01-1.48-.13-.69-.79-1.14-1.48-1.01Z"/><path class="cls-2" d="M166.71,79.9c-9.45,0-17.11,7.66-17.11,17.11s7.66,17.11,17.11,17.11,17.11-7.66,17.11-17.11-7.66-17.11-17.11-17.11Z"/><path d="M173.77,88.83c-2.72.51-4.51,3.13-4,5.85.51,2.72,3.13,4.51,5.85,4,2.72-.51,4.51-3.13,4-5.85-.51-2.72-3.12-4.51-5.84-4Z"/><path class="cls-2" d="M175.63,90.67c-.69.13-1.14.79-1.01,1.48.13.69.79,1.14,1.48,1.01.69-.13,1.14-.79,1.01-1.48-.13-.69-.79-1.14-1.48-1.01Z"/><path class="cls-2" d="M202.27,65.87c-9.45,0-17.11,7.66-17.11,17.11s7.66,17.11,17.11,17.11,17.12-7.66,17.12-17.11-7.66-17.11-17.12-17.11Z"/><path d="M209.34,74.8c-2.72.51-4.51,3.13-4,5.84.51,2.72,3.13,4.51,5.84,4,2.72-.51,4.51-3.13,4-5.85-.51-2.72-3.12-4.51-5.84-4Z"/><path class="cls-2" d="M211.19,76.64c-.69.13-1.14.79-1.01,1.48.13.69.79,1.14,1.48,1.01.69-.13,1.14-.79,1.01-1.48-.13-.69-.79-1.14-1.48-1.01Z"/><path class="cls-2" d="M172.39,43.38c-9.45,0-17.11,7.66-17.11,17.11s7.66,17.11,17.11,17.11,17.11-7.66,17.11-17.11-7.66-17.11-17.11-17.11Z"/><path d="M179.45,52.31c-2.72.51-4.51,3.13-4,5.84.51,2.72,3.12,4.51,5.85,4,2.72-.51,4.51-3.13,4-5.85-.51-2.72-3.12-4.51-5.84-4Z"/><path class="cls-2" d="M181.31,54.16c-.69.13-1.14.79-1.01,1.48.13.69.79,1.14,1.48,1.01.69-.13,1.14-.79,1.01-1.48-.13-.69-.79-1.14-1.48-1.01Z"/><path d="M85.4,135.92c-.61-.12-1-.7-.89-1.3h0c.12-.61.7-1,1.3-.89h0s5.81,1.1,16.16,2.22h0c10.35,1.11,25.2,2.22,43.22,2.22h0c1.63,0,3.29-.01,4.97-.03h0c14.56-.16,29.36-2.93,40.5-5.65h0c11.14-2.72,18.59-5.39,18.6-5.4h0c.58-.21,1.21.09,1.42.67h0c.21.58-.1,1.21-.67,1.42h0c-.06.01-30.19,10.84-59.83,11.18h0c-1.69.02-3.36.03-4.99.03h0c-36.22,0-59.74-4.47-59.8-4.48h0Z"/><path d="M84.12,130.17c-1.11,2.94-1.45,6.01-1.73,9.12-.1,1.09,2.09.78,2.18-.17.27-2.96.55-5.91,1.61-8.71.43-1.15-1.72-1.1-2.05-.23h0Z"/><path d="M207.11,124.78c1.82,2.01,3.26,3.8,3.2,6.64-.01.53,2.14.17,2.15-.58.06-2.93-1.47-4.8-3.34-6.86-.44-.49-2.48.28-2.01.8h0Z"/></g></svg>