<?xml version="1.0" encoding="UTF-8"?><svg id="_レイヤー_2" xmlns="http://www.w3.org/2000/svg" viewBox="0 0 278.28 281.59"><defs><style>.cls-1{fill:#ab4a9c;}.cls-2{fill:#e86792;}.cls-3{fill:#fff;}</style></defs><g id="Layer_1"><path class="cls-1" d="M92.16,122.95c-27.02,13.01-65.66,10.55-83.79-15.62-12.76-18.42-10.14-39.12,2.39-56.66,5.78-8.1,16.66-15.05,21.27-23.48C36.64,18.8,30.32,1.83,45.1.1c12.17-1.43,5.89,13.17.15,17.34,4.88-4.66,9.82-8.21,13.95-1.66,5.08,8.04-4.15,8.47-10.72,9.8,5.36-1.78,19.2.99,13.09,9.42-3.29,4.54-10.22,1.71-14.37,2.58-4.35.91-5.93,2.59-9.33,5.49-5.37,4.59-10.42,9.61-14.61,15.36-9.25,12.69-13.62,28.69-5,42.92,0,0,20.12,29.46,64.74,4.65l9.16,16.96Z"/><path class="cls-1" d="M186.12,122.95c27.02,13.01,65.67,10.55,83.79-15.62,12.76-18.42,10.14-39.12-2.39-56.66-5.78-8.1-16.66-15.05-21.27-23.48-4.6-8.4,1.72-25.36-13.06-27.1-12.18-1.43-5.89,13.17-.15,17.34-4.88-4.66-9.82-8.21-13.95-1.66-5.08,8.04,4.15,8.47,10.73,9.8-5.36-1.78-19.2.99-13.09,9.42,3.29,4.54,10.22,1.71,14.38,2.58,4.34.91,5.93,2.59,9.33,5.49,5.37,4.59,10.42,9.61,14.61,15.36,9.25,12.69,13.62,28.69,5,42.92,0,0-20.12,29.46-64.75,4.65l-9.16,16.96Z"/><path class="cls-1" d="M159.19,248.26c0,17.33-1.63,31.6,8.14,31.38,8.95-.2,8.14-14.05,8.14-31.38s-3.65-31.38-8.14-31.38-8.14,14.05-8.14,31.38Z"/><path class="cls-1" d="M159.47,269.22c-.64,14.19,9.76,12.29,20.6,12.29s19.63-3.21,19.63-7.16-8.79-7.17-19.63-7.17-20.42-1.91-20.6,2.04Z"/><path class="cls-1" d="M115.25,248.26c0,17.33,1.63,31.6-8.14,31.38-8.95-.2-8.14-14.05-8.14-31.38s3.64-31.38,8.14-31.38,8.14,14.05,8.14,31.38Z"/><path class="cls-1" d="M114.98,269.22c.64,14.19-9.76,12.29-20.6,12.29s-19.63-3.21-19.63-7.16,8.79-7.17,19.63-7.17,20.42-1.91,20.6,2.04Z"/><path class="cls-1" d="M229.63,115.43C231.85-14.14,49.59-15.49,49.59,118.07c0,84.98,13.28,113.48,47.17,121.07,20.46,4.58,49.58,5.97,82.8,1.63,53.08-6.94,49.56-96.11,50.06-125.34Z"/><path class="cls-3" d="M121.54,53.24c0,12.05,9.77,21.82,21.82,21.82s21.82-9.77,21.82-21.82-9.77-21.82-21.82-21.82-21.82,9.77-21.82,21.82Z"/><path d="M129.71,45.34c0,3.57,2.89,6.46,6.46,6.46s6.47-2.89,6.47-6.46-2.89-6.46-6.47-6.46-6.46,2.89-6.46,6.46Z"/><path class="cls-3" d="M132.85,42.56c0,.99.8,1.8,1.79,1.8s1.8-.8,1.8-1.8-.8-1.8-1.8-1.8-1.79.8-1.79,1.8Z"/><path class="cls-3" d="M167.81,78.01c0,12.05,9.77,21.82,21.82,21.82s21.82-9.77,21.82-21.82-9.77-21.82-21.82-21.82-21.82,9.77-21.82,21.82Z"/><path d="M175.98,70.11c0,3.57,2.89,6.46,6.46,6.46s6.46-2.89,6.46-6.46-2.89-6.46-6.46-6.46-6.46,2.89-6.46,6.46Z"/><path class="cls-3" d="M179.12,67.32c0,.99.8,1.8,1.79,1.8s1.79-.8,1.79-1.8-.8-1.79-1.79-1.79-1.79.8-1.79,1.79Z"/><path class="cls-3" d="M72.66,72.14c0,12.05,9.77,21.82,21.82,21.82s21.82-9.77,21.82-21.82-9.77-21.82-21.82-21.82-21.82,9.77-21.82,21.82Z"/><path d="M80.83,64.24c0,3.57,2.89,6.46,6.46,6.46s6.47-2.89,6.47-6.46-2.89-6.46-6.47-6.46-6.46,2.9-6.46,6.46Z"/><path class="cls-3" d="M83.97,61.46c0,.99.8,1.8,1.79,1.8s1.8-.8,1.8-1.8-.8-1.8-1.8-1.8-1.79.8-1.79,1.8Z"/><circle class="cls-3" cx="140.41" cy="106.65" r="21.82" transform="translate(-7.92 11.33) rotate(-4.49)"/><path d="M126.76,98.75c0,3.57,2.89,6.47,6.46,6.47s6.46-2.89,6.46-6.47-2.89-6.46-6.46-6.46-6.46,2.89-6.46,6.46Z"/><path class="cls-3" d="M129.9,95.97c0,.99.8,1.8,1.8,1.8s1.8-.8,1.8-1.8-.8-1.8-1.8-1.8-1.8.81-1.8,1.8Z"/><circle class="cls-3" cx="194.57" cy="129.66" r="21.82" transform="translate(-24.59 48.17) rotate(-13.28)"/><path d="M180.92,121.76c0,3.57,2.89,6.47,6.46,6.47s6.46-2.9,6.46-6.47-2.9-6.46-6.46-6.46-6.46,2.89-6.46,6.46Z"/><path class="cls-3" d="M184.06,118.98c0,.99.8,1.8,1.8,1.8s1.79-.8,1.79-1.8-.8-1.79-1.79-1.79-1.8.8-1.8,1.79Z"/><path class="cls-3" d="M62.49,123.3c0,12.05,9.77,21.82,21.82,21.82s21.82-9.77,21.82-21.82-9.77-21.82-21.82-21.82-21.82,9.77-21.82,21.82Z"/><path d="M70.66,115.4c0,3.57,2.89,6.46,6.46,6.46s6.47-2.89,6.47-6.46-2.89-6.46-6.47-6.46-6.46,2.89-6.46,6.46Z"/><path class="cls-3" d="M73.8,112.62c0,.99.8,1.8,1.79,1.8s1.8-.8,1.8-1.8-.8-1.79-1.8-1.79-1.79.8-1.79,1.79Z"/><path d="M139.14,136.55c37.73.64,35.42,19.37,35.42,19.37,0,8.15-9.34,13.8-20.69,14.76-4.16.35-9.37.51-14.74.56-5.37-.05-10.57-.21-14.74-.56-11.34-.96-20.68-6.61-20.68-14.76,0,0-2.31-18.74,35.42-19.37Z"/><path class="cls-2" d="M109.37,165.68c5.19-8.18,16.35-13.83,29.28-13.83s24.52,5.88,29.57,14.31c-3.73,2.45-8.79,4.04-14.33,4.51-4.16.35-9.37.51-14.74.56-5.37-.05-10.57-.21-14.74-.56-5.9-.5-11.25-2.27-15.04-5Z"/><path class="cls-3" d="M154.53,138.13c-3.53-.75-7.68-1.29-12.56-1.5v11.88c0,.27.22.5.5.5h11.57c.27,0,.49-.22.49-.5v-10.38ZM123.75,138.13v10.38c0,.27.23.5.5.5h11.57c.27,0,.5-.22.5-.5v-11.88c-4.88.21-9.03.74-12.56,1.5Z"/><path class="cls-1" d="M147.96,23.33s-3.21-8.34,12.52-15.4c0,0-21.5,2.25-21.82,14.76l9.31.64Z"/><path class="cls-1" d="M145.09,22.5s-6.59-20-23.28-13.96c0,0,18.44,5.16,15.36,18.2l7.93-4.24Z"/></g></svg>