<?xml version="1.0" encoding="UTF-8"?><svg id="_レイヤー_2" xmlns="http://www.w3.org/2000/svg" viewBox="0 0 232.32 292.96"><defs><style>.cls-1{fill:#e86792;}.cls-2{fill:#fff;}</style></defs><g id="Layer_1"><path class="cls-1" d="M32.7,5.83c-4.73-2.27-10.25,3.56-13.01,8.84,1.75-5.55,3.25-13.08-2.07-13.84-7.47-1.36-6.39,14.91-6.72,18.69C9.54,15.67,6.32,1.83,1.07,8.67c-3.72,5.08,3.08,16.32,7.49,21.51-4.43,14.57-1.25,39.61,3.27,54.27,9.09,34.51,27.77,78.49,61.31,98.22l6.54-2.31-1.08-4.65C8.76,108.28,13.78,46.09,15.54,34.09c6.1.66,16.25,1.88,21.1-2.01,7.54-5.99-3.21-12.85-10.5-9.94,3.33-2.84,15.48-11.79,6.57-16.3Z"/><path class="cls-1" d="M199.61,5.08c4.74-2.27,10.25,3.56,13.01,8.84-1.74-5.55-3.25-13.08,2.07-13.84,7.47-1.36,6.39,14.91,6.72,18.69,1.36-3.85,4.58-17.7,9.82-10.85,3.72,5.08-3.08,16.31-7.49,21.51,4.43,14.57,1.25,39.61-3.27,54.27-9.09,34.51-27.77,78.49-61.31,98.22l-6.54-2.31,1.08-4.65c69.84-67.44,64.82-129.62,63.06-141.62-6.1.66-16.25,1.88-21.1-2.01-7.54-5.99,3.21-12.85,10.5-9.95-3.33-2.84-15.48-11.79-6.57-16.3Z"/><path class="cls-1" d="M140.05,254.59c0,19.95-1.87,36.38,9.37,36.13,10.31-.23,9.37-16.18,9.37-36.13s-4.19-36.13-9.37-36.13-9.37,16.17-9.37,36.13Z"/><path class="cls-1" d="M140.36,278.72c-.74,16.33,11.23,14.15,23.72,14.15s22.6-3.69,22.6-8.25-10.12-8.25-22.6-8.25-23.51-2.2-23.72,2.35Z"/><path class="cls-1" d="M89.46,254.59c0,19.95,1.88,36.38-9.37,36.13-10.31-.23-9.37-16.18-9.37-36.13s4.2-36.13,9.37-36.13,9.37,16.17,9.37,36.13Z"/><path class="cls-1" d="M89.14,278.72c.74,16.33-11.23,14.15-23.71,14.15s-22.6-3.69-22.6-8.25,10.12-8.25,22.6-8.25,23.51-2.2,23.71,2.35Z"/><path class="cls-1" d="M160.2,20.5c0,5.04,4.09,9.13,9.13,9.13s9.13-4.09,9.13-9.13-4.09-9.13-9.13-9.13-9.13,4.09-9.13,9.13Z"/><rect class="cls-1" x="128.86" y="39.39" width="51.47" height="5.11" transform="translate(32.56 145.71) rotate(-55.56)"/><path class="cls-2" d="M166.29,16.28c0,1.37,1.11,2.49,2.49,2.49s2.49-1.12,2.49-2.49-1.12-2.49-2.49-2.49-2.49,1.11-2.49,2.49Z"/><path class="cls-1" d="M67.4,20.5c0,5.04-4.09,9.13-9.13,9.13s-9.13-4.09-9.13-9.13,4.09-9.13,9.13-9.13,9.13,4.09,9.13,9.13Z"/><rect class="cls-1" x="70.44" y="16.21" width="5.11" height="51.47" transform="translate(-10.93 48.65) rotate(-34.45)"/><path class="cls-2" d="M61.31,16.28c0,1.37-1.12,2.49-2.49,2.49s-2.49-1.12-2.49-2.49,1.11-2.49,2.49-2.49,2.49,1.11,2.49,2.49Z"/><path class="cls-1" d="M113.63,266.8c-96.02-1.03-88.14-73.16-71.84-104.58,24.47-47.17-7.04-142.71,86.03-133.71,68.41,6.62,49.87,100.6,65.07,134.46,16.62,37.02,31.73,105.01-79.26,103.82Z"/><path class="cls-2" d="M84.99,78.65c0,18.31,14.84,33.15,33.15,33.15s33.15-14.84,33.15-33.15-14.84-33.14-33.15-33.14-33.15,14.84-33.15,33.14Z"/><path d="M97.4,66.65c0,5.43,4.4,9.82,9.82,9.82s9.82-4.4,9.82-9.82-4.4-9.82-9.82-9.82-9.82,4.4-9.82,9.82Z"/><path class="cls-2" d="M102.18,62.42c0,1.51,1.22,2.73,2.73,2.73s2.73-1.22,2.73-2.73-1.22-2.73-2.73-2.73-2.73,1.22-2.73,2.73Z"/><path class="cls-1" d="M127.03,32.57c-.35-6.27-5.57-13.58-10.1-17.76-.35,2.79-.7,5.92-1.04,8.36-2.44-3.48-5.92-6.62-9.75-8.36.7,2.09.95,6.71,1.65,8.45-3.25-2.79-6.52-3.93-9.66-5.32,1.74,6.27,5.57,12.19,6.96,18.46l21.94-3.83Z"/><polygon points="172.84 94.37 158.36 119.45 150.7 108.98 140.49 129.51 130.27 115.69 117.93 132.67 107.28 118.46 94.09 130.3 88.13 111.35 76 119.84 63.44 93.58 73.23 135.83 81.96 127.34 89.4 146.49 104.94 133.66 116.86 152.81 131.12 132.67 142.19 145.51 152.19 126.95 161.77 134.25 172.84 94.37"/></g></svg>