<?xml version="1.0" encoding="UTF-8"?><svg id="_レイヤー_2" xmlns="http://www.w3.org/2000/svg" viewBox="0 0 236.82 286.77"><defs><style>.cls-1{fill:#f90315;}.cls-2{fill:#212121;}.cls-3{fill:#fff;}</style></defs><g id="Layer_1"><path class="cls-1" d="M37.76,44.36c15.76-5.12,36.76-1.9,50.6,5.01.14-.09.29-.18.43-.27-8.41-6.69-20.34-9.14-30.91-11.5-5.06-1.22-20.1-1.31-20.43-9.17-.39-9.29,14.9-6.64,19.7-4.84,13.78,5.35,26.28,12.56,35.97,23.08.5-.25,1-.5,1.5-.74-2.27-4.94-5.47-9.44-9.12-12.85-7.78-7.03-23.44-6.7-29.51-15.03-7.59-10.68,3.35-12.26,12.6-9.32,20.35,6.47,26.55,19.5,30.33,35.37.79-.3,1.57-.57,2.36-.82-.88-5.11-1.94-10.24-3.76-14.87-2.46-5.65-8.1-12.05-7.78-18.43.23-6.74,4.3-10.16,9.57-6.42,8.23,6.12,7.27,27.74,6.13,38.58,1.5-.34,3-.61,4.5-.81.89-5.2,1.01-10.7.63-15.65-.64-5.76-3.95-13.44-2.35-18.88,2.88-8.64,8.96-6.4,9.6,1.6.79,10.85-1.98,21.55.11,32.53,1.54.05,3.08.17,4.61.36-2.6-9.56-3.44-19.96-1.4-28.9,1.18-4.52,7.08-16.55,12.7-10.93,4.71,4.39-1.39,19.16-2.44,23.95-1.35,6.25-.89,12.25.77,17.92.87.26,1.74.54,2.61.84-.03-9.53,1.57-19.13,4.19-28.69,1.41-4.93,8.38-18.8,15.62-12.95,6.12,4.95-2.77,17.08-4.8,21.87-3.14,7.07-6.66,14.73-8.28,22.45,1.02.46,2.03.94,3.04,1.44,3.84-15.01,10.33-27.27,29.87-33.48,9.25-2.94,20.18-1.36,12.6,9.32-6.07,8.33-21.73,8-29.51,15.03-3.31,3.1-6.26,7.09-8.47,11.5.27.15.53.3.8.45,9.3-9.13,20.84-15.59,33.46-20.49,4.8-1.8,20.09-4.46,19.7,4.84-.33,7.86-15.37,7.95-20.43,9.17-9.37,2.09-19.8,4.26-27.91,9.38.37.23.74.47,1.11.71,13.7-5.72,32.51-8.01,46.93-3.33,4.7,1.69,16.96,9.14,10.43,14.59-5.13,4.6-20.28-3.33-25.29-4.91-7.86-2.45-15.59-2.08-22.94,0,.14.1.29.21.43.31,13.35.68,28.24,4.97,38.41,12.92,3.84,3.2,12.8,14.4,4.8,17.28-6.4,2.56-17.92-10.08-22.07-13.28-1.14-.87-2.31-1.66-3.5-2.38,29.2,29.59,1.9,65.95-7.15,102.1-5.93,23.67-4.98,78.63-59.89,78.63s-50.22-54.42-54.38-68.14c-5.35-17.62-6.67-29.83-17.23-45.49-20.06-33.88-2.55-56.81,23.92-78.49-4.99,1.21-9.8,3.35-14.21,6.73-4.16,3.2-15.68,15.84-22.07,13.28-8-2.88.96-14.08,4.8-17.28,10.5-8.22,26.05-12.52,39.74-12.98-7.62-2.31-15.66-2.81-23.84-.26-5,1.58-20.15,9.51-25.29,4.91-6.53-5.45,5.72-12.9,10.43-14.59Z"/><path class="cls-1" d="M10.6,55.01c.35,9.52,4.7,87.43,52.37,101.72l-1.22,7.69C17.36,159.66,3.5,86.65,2.59,54.61,1.08,52.38-.21,50.01.03,47.21c.43-4.73,4.74-4.23,5.42-.91.93-7.46,13.34-4.53,4.63,2.45,2.41-.91,10.07-4.88,9.8.87-.09,3.35-6.34,5.31-9.29,5.39Z"/><path class="cls-1" d="M225.55,57.3c-1.27,9.44-13.08,86.57-61.91,96.21l.48,7.77c44.63-.47,65.44-71.81,69.44-103.62,1.72-2.07,3.23-4.31,3.26-7.12.03-4.75-4.31-4.67-5.31-1.43-.21-7.52-12.84-5.79-4.85,2-2.31-1.14-9.55-5.82-9.84-.07-.23,3.34,5.79,5.9,8.72,6.26Z"/><path class="cls-1" d="M129.18,264.61c0,11.52-1.08,21,5.41,20.86,5.95-.13,5.41-9.34,5.41-20.86s-2.42-20.86-5.41-20.86-5.41,9.34-5.41,20.86Z"/><path class="cls-1" d="M129.37,278.54c-.43,9.43,6.48,8.17,13.69,8.17s13.05-2.13,13.05-4.76-5.84-4.76-13.05-4.76-13.57-1.27-13.69,1.36Z"/><path class="cls-1" d="M99.98,264.61c0,11.52,1.08,21-5.41,20.86-5.95-.13-5.41-9.34-5.41-20.86s2.42-20.86,5.41-20.86,5.41,9.34,5.41,20.86Z"/><path class="cls-1" d="M99.8,278.54c.43,9.43-6.49,8.17-13.69,8.17s-13.05-2.13-13.05-4.76,5.84-4.76,13.05-4.76,13.57-1.27,13.69,1.36Z"/><path class="cls-3" d="M134.35,132.73c-17.5,10.22-39.97,4.31-50.19-13.19-10.22-17.5-4.31-39.97,13.19-50.19,17.5-10.22,39.97-4.31,50.19,13.19,10.22,17.5,4.31,39.97-13.19,50.19Z"/><path class="cls-2" d="M123.47,112.47c-6.52,3.81-14.89,1.61-18.7-4.91-3.81-6.52-1.61-14.89,4.91-18.7,6.52-3.81,14.89-1.61,18.7,4.91,3.8,6.52,1.61,14.89-4.91,18.7Z"/><path class="cls-3" d="M114.3,99.01c-1.94,1.14-4.44.48-5.58-1.46-1.13-1.94-.48-4.44,1.47-5.58,1.94-1.13,4.44-.48,5.58,1.47,1.13,1.94.48,4.44-1.47,5.58Z"/><path d="M115.85,155.17c36.39.4,43.83,32.18,43.83,32.18-18.43-5.49-32.76-7.66-43.83-7.98-11.07.31-25.4,2.49-43.83,7.98,0,0,7.45-31.78,43.83-32.18Z"/><path class="cls-3" d="M80.19,185.05c4.65-1.22,9.01-2.21,13.09-3.01l-4.67-12.18s-7.25,8.73-8.42,15.19ZM92.56,160.95c2.16,5.7,5.01,10.62,5.01,10.62l7.07-15.16c-4.62,1.02-8.62,2.61-12.08,4.55ZM111.85,166.88l-9.31,13.62c4.17-.57,8.01-.91,11.53-1.07l-2.22-12.55ZM149.61,175.84l-4.13,7.72c2.97.69,6.08,1.48,9.31,2.38-1.05-3.13-2.78-7.33-5.19-10.1ZM130.96,157.44c-3.82-1.2-8.13-1.99-12.97-2.21l3.04,17.19,9.93-14.99ZM142.57,163.11v12.73l6.27-7.37c-1.8-1.88-3.88-3.7-6.27-5.37ZM134.68,171.36l-7.33,8.91c2.97.37,6.12.85,9.46,1.47l-2.13-10.38Z"/></g></svg>