<?xml version="1.0" encoding="UTF-8"?><svg id="_レイヤー_2" xmlns="http://www.w3.org/2000/svg" viewBox="0 0 291.98 287.19"><defs><style>.cls-1{fill:#e0b707;}.cls-2{fill:#ffd100;}.cls-3{fill:#332627;}.cls-4{fill:#fff;}</style></defs><g id="Layer_1"><path class="cls-2" d="M184.81,68.66s8.93-41.11,38.1-48.17l5.23,12.57s-26.37,9.36-32.93,40.52l-10.39-4.92Z"/><path class="cls-2" d="M225.83,0c-14.41,0-26.09,11.68-26.09,26.09s11.68,26.09,26.09,26.09,26.09-11.68,26.09-26.09S240.24,0,225.83,0Z"/><path class="cls-4" d="M225.83,2.32c-13.13,0-23.77,10.64-23.77,23.77s10.64,23.77,23.77,23.77,23.77-10.64,23.77-23.77-10.64-23.77-23.77-23.77Z"/><path class="cls-2" d="M221.3,13.08c13.94,0,25.24,11.3,25.24,25.23,0,.9-.05,1.79-.15,2.67,2.93-4.12,4.66-9.14,4.66-14.58,0-13.94-11.29-25.24-25.23-25.24-13.04,0-23.75,9.88-25.09,22.57,4.57-6.44,12.07-10.65,20.57-10.65Z"/><path d="M225.57,19.37c-3.78.71-6.27,4.34-5.56,8.12.71,3.78,4.34,6.27,8.12,5.56,3.78-.71,6.27-4.34,5.56-8.12-.71-3.78-4.34-6.27-8.12-5.56Z"/><path class="cls-4" d="M228.15,21.94c-.96.18-1.59,1.1-1.41,2.05.18.96,1.1,1.58,2.06,1.4.95-.18,1.58-1.1,1.4-2.05-.18-.95-1.1-1.58-2.05-1.4Z"/><path class="cls-2" d="M107.16,68.66s-8.93-41.11-38.1-48.17l-5.23,12.57s26.37,9.36,32.93,40.52l10.39-4.92Z"/><path class="cls-2" d="M66.15,0c14.41,0,26.09,11.68,26.09,26.09s-11.68,26.09-26.09,26.09-26.09-11.68-26.09-26.09S51.74,0,66.15,0Z"/><path class="cls-4" d="M66.15,2.32c13.13,0,23.77,10.64,23.77,23.77s-10.64,23.77-23.77,23.77-23.77-10.64-23.77-23.77S53.02,2.32,66.15,2.32Z"/><path class="cls-2" d="M70.67,13.08c-13.94,0-25.24,11.3-25.24,25.23,0,.9.05,1.79.14,2.67-2.92-4.12-4.66-9.14-4.66-14.58,0-13.94,11.3-25.24,25.23-25.24,13.03,0,23.75,9.88,25.09,22.57-4.57-6.44-12.07-10.65-20.57-10.65Z"/><path d="M66.41,19.37c3.78.71,6.27,4.34,5.56,8.12-.71,3.78-4.34,6.27-8.12,5.56-3.78-.71-6.26-4.34-5.56-8.12.71-3.78,4.34-6.27,8.12-5.56Z"/><path class="cls-4" d="M63.82,21.94c.96.18,1.59,1.1,1.41,2.05-.18.96-1.1,1.58-2.06,1.4-.96-.18-1.59-1.1-1.41-2.05.18-.95,1.1-1.58,2.05-1.4Z"/><path class="cls-2" d="M103.62,247.64h-5.02v32.12c-3.1-1.57-7.3-2.78-11.94-2.78-9.51,0-17.22,5.09-17.22,7.89s7.71,2.28,17.22,2.28,17.23.53,17.23-2.28l-.26-37.24Z"/><path class="cls-2" d="M188.36,247.64h5.02v32.12c3.1-1.57,7.3-2.78,11.94-2.78,9.51,0,17.22,5.09,17.22,7.89s-7.71,2.28-17.22,2.28-17.23.53-17.23-2.28l.27-37.24Z"/><path class="cls-2" d="M37.27,164.14c-8.14,10.63-14.57,22.11-19.17,34.23l.07.05c1.92,1.88,8.57,8,8.27,10.93-.61,6.06-8.69,3.75-10.88-1.04.64,3.62-.94,8.98-5.11,8.74-5.9-.17-2.62-9.77-.42-12.72-2.99,2.45-10.7,7.6-9.98.48.4-3.96,7.93-6.3,12.33-8.13,3.35-9.13,7.76-18.45,13.32-27.18,9.57-15.03,27.09-32.65,40.39-42.02l15.79,2.4c-3.24.87-6.54,2.44-9.51,3.96-13.99,7.18-25.6,17.9-35.1,30.29Z"/><path class="cls-2" d="M281.95,204.32c2.2,2.95,5.48,12.56-.42,12.72-4.17.24-5.75-5.12-5.11-8.74-2.19,4.79-10.28,7.1-10.89,1.04-.29-2.93,6.35-9.04,8.28-10.93l.07-.05c-4.6-12.12-11.03-23.59-19.17-34.23-9.49-12.39-21.1-23.11-35.09-30.29-2.97-1.52-6.27-3.1-9.51-3.96l15.78-2.4c13.3,9.37,30.82,26.99,40.39,42.02,5.56,8.73,9.98,18.04,13.32,27.18,4.4,1.82,11.93,4.17,12.33,8.13.71,7.12-6.99,1.97-9.98-.48Z"/><path class="cls-2" d="M255.07,160.79c0,62.28-48.84,97.62-109.08,97.62s-109.08-35.35-109.08-97.62,48.84-112.77,109.08-112.77,109.08,50.49,109.08,112.77Z"/><path class="cls-3" d="M79.82,180.63s16.77-53.41,65.62-53.41c25.04,0,54.2,13.9,66.71,53.41,0,0-71.22-21.71-132.33,0Z"/><path class="cls-4" d="M145.99,144.3c2.83-.03,6.24-5.44,8.51-11.26.8,6.19,2.81,12.26,5.56,12.97,2.76.65,7.41-3.77,11.05-8.86-.71,6.21-.21,12.61,2.32,14,2.56,1.33,8.22-1.76,13.04-5.76-2.2,5.87-3.23,12.25-1.05,14.32,2.39,2.16,9.56.36,15.6-2.56-14.68-21.71-36.34-29.93-55.58-29.93-26.61,0-43.7,15.85-53.75,30.27,5.87,2.71,12.57,4.29,14.86,2.22,2.19-2.07,1.15-8.45-1.04-14.32,4.81,4,10.47,7.09,13.03,5.76,2.54-1.39,3.04-7.79,2.32-14,3.64,5.09,8.29,9.51,11.05,8.86,2.75-.71,4.76-6.78,5.56-12.98,2.27,5.82,5.69,11.23,8.51,11.26Z"/><path class="cls-1" d="M138.7,87.61c0,7.45-1.63,13.49-3.64,13.49s-3.65-6.04-3.65-13.49,1.63-13.49,3.65-13.49,3.64,6.04,3.64,13.49Z"/><path class="cls-1" d="M160.57,87.61c0,7.45-1.63,13.49-3.65,13.49s-3.64-6.04-3.64-13.49,1.63-13.49,3.64-13.49,3.65,6.04,3.65,13.49Z"/></g></svg>