<?xml version="1.0" encoding="UTF-8"?><svg id="_レイヤー_2" xmlns="http://www.w3.org/2000/svg" viewBox="0 0 296.16 287.19"><defs><style>.cls-1{fill:#332627;}.cls-2{fill:#e86792;}.cls-3{fill:#fff;}.cls-4{fill:#f80;}.cls-5{fill:#e27407;}</style></defs><g id="Layer_1"><path class="cls-4" d="M63.58,9.15s.74,32.53,22.46,40.03l20.7-21S88.02,7.31,63.58,9.15Z"/><path class="cls-5" d="M72.83,17.12s.44,19.02,13.14,23.41l12.11-12.28s-10.95-12.21-25.25-11.13Z"/><path class="cls-4" d="M227.35,9.15s-.75,32.53-22.46,40.03l-20.71-21s18.73-20.88,43.17-19.03Z"/><path class="cls-5" d="M218.09,17.12s-.44,19.02-13.14,23.41l-12.11-12.28s10.95-12.21,25.25-11.13Z"/><path class="cls-4" d="M37.8,80.67c-8.26-11.08-14.78-23.05-19.45-35.68l.07-.05c1.95-1.96,8.69-8.34,8.39-11.39-.62-6.32-8.82-3.91-11.04,1.08.65-3.77-.95-9.36-5.18-9.11-5.99.17-2.65,10.19-.42,13.26-3.04-2.55-10.85-7.92-10.13-.5.4,4.13,8.04,6.57,12.51,8.47,3.39,9.52,7.88,19.23,13.51,28.33,9.71,15.67,27.49,34.03,40.97,43.8l16.01-2.51c-3.29-.9-6.63-2.54-9.65-4.13-14.2-7.49-25.97-18.65-35.6-31.57Z"/><path class="cls-4" d="M285.99,38.78c2.23-3.08,5.56-13.09-.43-13.26-4.23-.25-5.83,5.34-5.18,9.11-2.22-5-10.43-7.4-11.04-1.08-.3,3.06,6.44,9.43,8.39,11.39l.07.05c-4.67,12.63-11.19,24.59-19.45,35.68-9.63,12.92-21.4,24.09-35.6,31.57-3.01,1.59-6.36,3.23-9.64,4.13l16.01,2.51c13.49-9.77,31.26-28.13,40.97-43.8,5.64-9.1,10.12-18.81,13.51-28.33,4.47-1.9,12.1-4.34,12.51-8.47.72-7.42-7.09-2.05-10.13.5Z"/><path class="cls-4" d="M126.19,245.96h-5.23v33.48c-3.23-1.63-7.61-2.9-12.45-2.9-9.91,0-17.95,5.3-17.95,8.23s8.04,2.37,17.95,2.37,17.96.55,17.96-2.37l-.28-38.82Z"/><path class="cls-4" d="M165.58,245.96h5.23v33.48c3.23-1.63,7.61-2.9,12.45-2.9,9.91,0,17.95,5.3,17.95,8.23s-8.04,2.37-17.95,2.37-17.96.55-17.96-2.37l.28-38.82Z"/><path class="cls-4" d="M234.03,165.15h0c2.33,2,10.43,3.29,12.87,4.47-2.1-9.29-6.32-21.26-16.16-27.85,0-.03,0-.06-.01-.09,3.19,1.79,7.79,2.5,10.84,3.7-.83-10.28-7.27-21.21-15.02-29.15-.26-1.42-.52-2.88-.81-4.4l8.05-4.55c-2.47-4.37-7.57-9.21-11.43-13.07,4.48-.99,7.34,2.52,12.76,2.52-2.67-7.02-10.84-13.93-16.19-19.47,0,0,0,0,0,0,4.21.74,7.65,2.22,11.47,3.33-1.53-10.35-8.03-16.26-16.06-22.55,4.58.74,9.56,2.22,14.14.74-3.44-11.83-11.08-15.89-22.17-20.33,3.82.37,8.03,1.11,11.47,0-9.56-11.83-14.54-12.12-29.07-16.19,2.85-2.85,2.64-7.94,7.23-9.41-9.56-5.18-15.25,3.05-25.57,1.21.76-3.33,3.44-5.91,6.5-7.02-7.65-1.11-15.67,2.59-22.94,4.06,0-4.8,3.06-8.13,6.88-11.09-7.18-.22-13.24,3.22-17.92,8.11-12.87-4.4-30.76-4.12-40.14,6.46,4.3,0,9.46,1.66,14.62.83-11.18,6.65-24.95,4.99-32.69,17.46,4.3-.83,8.6,0,12.04-1.66-10.32,6.65-18.92,15.8-21.5,27.44,3.44-.83,8.6-.83,12.04-2.49-11.18,4.99-17.21,16.63-20.65,25.78,2.58-.83,6.02-1.66,8.6-3.32-6.02,8.31-8.23,13.95-11.67,23.93,3.12-2.26,6.05-1.2,7.96-.99-.14.57-.28,1.14-.42,1.71-3.33,6.32-8.66,22.01-11.39,28.29-2.22,4.53-3.72,9.25-4.09,13.84,2.26-.89,5.37-1.51,8.13-2.49-.05.34-.09.69-.14,1.03-7.85,6.83-11.44,17.35-13.33,25.71,2.44-1.18,5.74-2.47,8.07-4.47-4.83,9.06-6.98,18.59-9.02,28.95,1.76-1.69,6.25-4.54,10.33-7.22-1.97,11.21-5.12,20.41-5.12,20.41l9.48-5.54-2.01,17.32,6.04-4.82.19,15.32,4.94-4.56,1.28,15.7,5.47-6.36,2.71,10.2,4.53-3.85,5.6,9.03,2.97-3.44,4.85,6.56,5.16-3.64c12.71,3.53,26.89,4.04,40.3,4.26,10.75.18,23.82-.34,38.37-5.78.12.18.39.27.85.27,3.54,0,6.94,4.9,6.94,4.9l4.85-6.56,2.98,3.44,5.6-9.03,4.54,3.85,2.71-10.2,5.47,6.36,1.28-15.7,4.95,4.56.19-15.26s.01-.03.02-.05l6.02,4.8-2.01-17.32,10.13,3.95s-2.85-8.53-6.95-22.65c3.27,2.37,8.09,4.45,10.69,6.95-2.04-10.36-5.46-11.69-8.64-24.84Z"/><path class="cls-3" d="M135.4,37.85c-5.56,0-10.06,4.51-10.06,10.06s4.5,10.07,10.06,10.07,10.07-4.51,10.07-10.07-4.5-10.06-10.07-10.06Z"/><path d="M139.55,43.11c-1.6.3-2.65,1.84-2.35,3.44.3,1.6,1.84,2.65,3.44,2.35,1.6-.3,2.65-1.84,2.35-3.44-.3-1.6-1.84-2.65-3.44-2.35Z"/><path class="cls-3" d="M140.64,44.19c-.41.08-.67.46-.6.87.08.4.46.67.87.59.41-.08.67-.46.6-.87-.08-.4-.47-.67-.87-.59Z"/><path class="cls-3" d="M156.37,37.85c-5.56,0-10.06,4.51-10.06,10.06s4.5,10.07,10.06,10.07,10.06-4.51,10.06-10.07-4.5-10.06-10.06-10.06Z"/><path d="M150.53,43.11c-1.6.3-2.65,1.84-2.35,3.44.3,1.6,1.84,2.65,3.44,2.35,1.6-.3,2.65-1.84,2.35-3.44-.3-1.6-1.84-2.65-3.44-2.35Z"/><path class="cls-3" d="M151.62,44.19c-.41.08-.67.46-.59.87.07.4.46.67.87.59.4-.08.67-.46.59-.87-.08-.4-.46-.67-.87-.59Z"/><path class="cls-1" d="M186.89,84.93c0,10.19-7.51,16.68-16.73,18.45-5.67,1.09-17.24,1.93-23.01,1.93-9.33,0-17.62-.64-23.33-1.93-9.22-2.09-16.73-8.26-16.73-18.45h0c0-10.19,7.49-17.38,16.73-18.45,0,0,12.15-1.08,23.75-1.07,9.46,0,16.97,1.25,22.58,1.93,10.09,1.23,16.73,7.4,16.73,17.59h0Z"/><path class="cls-2" d="M146.59,87.34c-14.87,0-27.31,5.55-30.53,13.01,2.32,1.38,4.96,2.4,7.76,3.04,5.71,1.29,13.99,1.93,23.33,1.93,5.77,0,17.34-.84,23.01-1.93,2.57-.49,4.99-1.36,7.17-2.56-2.89-7.69-15.55-13.48-30.73-13.48Z"/><path class="cls-3" d="M157.38,72.57c4.6,12.02,8.29,3.91,10.75-2.21.47-1.18.75-2.23.84-3.16-3.56-.46-7.83-1.06-12.81-1.44-.23,1.83.2,4.15,1.22,6.81ZM179.92,92.82c-6.7-8.92-8.16-.84-8.16,4.88,0,2.42.17,4.08.51,5.18,4.06-1.14,7.66-3.23,10.27-6.19-.61-1.06-1.47-2.33-2.62-3.86ZM124.96,66.39c-.01,1.12.27,2.43.88,3.96,2.46,6.12,6.15,14.23,10.75,2.21,1.04-2.72,1.46-5.09,1.2-6.94-5.79.23-10.7.6-12.83.77ZM114.05,91.68c-1.39,1.85-2.36,3.31-2.97,4.5,2.55,3.03,6.15,5.19,10.22,6.5.61-.99.92-2.86.92-6.12,0-5.71-1.46-13.79-8.16-4.88Z"/></g></svg>