<?xml version="1.0" encoding="UTF-8"?><svg id="_レイヤー_2" xmlns="http://www.w3.org/2000/svg" viewBox="0 0 333.28 281.59"><defs><style>.cls-1{fill:#e86792;}.cls-2{fill:#fff;}.cls-3{fill:#f80;}</style></defs><g id="Layer_1"><path class="cls-3" d="M242.56,136.25c0-.45-.03-.89-.06-1.33,16.29-.41,29.18-11.53,37.49-25.56,4.23-7.15,7.29-14.88,9.74-22.78,1.55-4.99,2.62-7.47,1.59-12.56-.99-4.86-7.23-11-3.87-16.63,5.4-9.06,13.15-.07,15.49,6.77-1.66-7.06-3.4-14.64,6.23-13.12,7.77,1.23,7.63,6.65,5.65,12.9,3.57-7.9,14.07-17.2,17.7-5,4.97,16.67-16.17,17.73-23.06,26.55-6.91,8.84-9.35,23.73-15.38,33.69-12.12,20.01-31.09,32.1-54.28,29.59,1.84-3.81,2.84-8.07,2.75-12.53Z"/><path class="cls-3" d="M90.72,136.25c0-.45.03-.89.06-1.33-16.28-.41-29.18-11.53-37.49-25.56-4.23-7.15-7.29-14.88-9.74-22.78-1.55-4.99-2.62-7.47-1.59-12.56.99-4.86,7.23-11,3.87-16.63-5.4-9.06-13.15-.07-15.49,6.77,1.66-7.06,3.4-14.64-6.23-13.12-7.78,1.23-7.63,6.65-5.65,12.9-3.57-7.9-14.07-17.2-17.7-5-4.97,16.67,16.17,17.73,23.06,26.55,6.91,8.84,9.35,23.73,15.38,33.69,12.12,20.01,31.09,32.1,54.28,29.59-1.84-3.81-2.85-8.07-2.75-12.53Z"/><path class="cls-3" d="M191.17,242.63c0,20.26-1.9,36.94,9.51,36.69,10.47-.23,9.51-16.42,9.51-36.69s-4.26-36.69-9.51-36.69-9.51,16.42-9.51,36.69Z"/><path class="cls-3" d="M191.49,267.13c-.75,16.59,11.41,14.36,24.08,14.36s22.95-3.75,22.95-8.37-10.27-8.37-22.95-8.37-23.87-2.23-24.08,2.38Z"/><path class="cls-3" d="M139.79,242.63c0,20.26,1.9,36.94-9.52,36.69-10.47-.23-9.51-16.42-9.51-36.69s4.26-36.69,9.51-36.69,9.52,16.42,9.52,36.69Z"/><path class="cls-3" d="M139.47,267.13c.75,16.59-11.41,14.36-24.08,14.36s-22.95-3.75-22.95-8.37,10.27-8.37,22.95-8.37,23.87-2.23,24.08,2.38Z"/><path class="cls-3" d="M161.87,246.66c-85.46-1.11-88.81-54.73-91.01-85.46-5.64-78.77,10.2-151,111.42-140.23,74.4,7.92,78.44,74.86,71.13,140.23-3.2,28.61-12.56,86.48-91.55,85.46Z"/><path class="cls-2" d="M183.86,78.28c0,10.46,8.48,18.94,18.95,18.94s18.94-8.48,18.94-18.94-8.48-18.94-18.94-18.94-18.95,8.48-18.95,18.94Z"/><path d="M190.96,71.42c0,3.1,2.51,5.61,5.61,5.61s5.61-2.51,5.61-5.61-2.51-5.61-5.61-5.61-5.61,2.51-5.61,5.61Z"/><path class="cls-2" d="M193.68,69.01c0,.86.7,1.56,1.56,1.56s1.56-.7,1.56-1.56-.7-1.56-1.56-1.56-1.56.7-1.56,1.56Z"/><path class="cls-2" d="M149.84,50.92c0,10.46,8.48,18.94,18.94,18.94s18.94-8.48,18.94-18.94-8.48-18.94-18.94-18.94-18.94,8.48-18.94,18.94Z"/><path d="M156.93,44.06c0,3.1,2.51,5.61,5.61,5.61s5.61-2.51,5.61-5.61-2.51-5.61-5.61-5.61-5.61,2.51-5.61,5.61Z"/><path class="cls-2" d="M159.66,41.65c0,.86.7,1.56,1.56,1.56s1.56-.7,1.56-1.56-.7-1.56-1.56-1.56-1.56.7-1.56,1.56Z"/><path class="cls-2" d="M115.81,77.93c0,10.46,8.48,18.94,18.94,18.94s18.94-8.48,18.94-18.94-8.48-18.95-18.94-18.95-18.94,8.48-18.94,18.95Z"/><path d="M122.91,71.07c0,3.1,2.51,5.61,5.61,5.61s5.61-2.51,5.61-5.61-2.51-5.61-5.61-5.61-5.61,2.51-5.61,5.61Z"/><path class="cls-2" d="M125.64,68.66c0,.86.7,1.56,1.56,1.56s1.56-.7,1.56-1.56-.7-1.56-1.56-1.56-1.56.7-1.56,1.56Z"/><path class="cls-3" d="M174.76,28.4c5.96-2.38,12.57-26.75,5.29-23.58-3.05,1.33-2.16,9.07-2.43,11.29.52-4.63-2.91-19.66-7.29-15.34-3.53,3.49-.13,10.14.77,14.85.54-3.68-6.03-14.18-9.84-8.76-3.37,4.79,8.09,16.74,7.78,22.35l5.72-.82Z"/><path class="cls-3" d="M232.97,71.97c32.27,8.42,42.1-49.81,27.36-68.06-3.51,20.35-19.64,42.1-42.8,39.29l15.44,28.77Z"/><path class="cls-3" d="M102.47,71.97c-32.27,8.42-42.1-49.81-27.36-68.06,3.51,20.35,19.65,42.1,42.8,39.29l-15.44,28.77Z"/><path d="M238.3,88.38s-6.91,52.54-48.64,66.88c-29.93,10.29-61.04.47-76.24-19.64-8.61-11.39-13.56-29.47-14.97-50.98,0,0,66.88,92.13,139.84,3.74Z"/><path class="cls-1" d="M121.86,144.43c10.55-5.4,26.55-8.84,44.46-8.84s32.7,3.19,43.25,8.25c-5.54,4.75-12.12,8.75-19.91,11.43-25.15,8.65-51.13,3.09-67.8-10.83Z"/><path class="cls-2" d="M121.7,129.56s.55-10.95,6.02-17.45c-4.35-2.91-8.29-6.01-11.77-9.03-.37,6.6-.05,18.43,5.76,26.48ZM205.63,117.15c1.93,7.05.4,14.96.4,14.96,7.13-6.07,10.32-16.56,11.69-23.19-4.07,3.23-8.1,5.96-12.09,8.23Z"/><path class="cls-2" d="M129.9,150.06c.1.06.2.12.31.18.06.04.12.07.18.11.25.14.5.28.75.43.07.04.15.08.22.12.25.14.5.28.76.41.06.03.12.06.17.09,1.14.61,2.31,1.18,3.5,1.72.08.04.17.08.25.11.25.11.5.22.75.33.1.04.2.09.3.13-.4-4.4-.38-8.87-.64-13.36-2.89,1.82-5.05,5.81-6.53,9.72ZM195.88,141.27c-1.72,4.55-3.11,9.18-5.02,13.56.03,0,.06-.02.09-.03.11-.04.21-.08.32-.12.42-.15.83-.32,1.24-.48,0,0,.02,0,.03,0,.42-.17.83-.34,1.24-.51.1-.04.2-.09.3-.13.4-.17.79-.34,1.18-.52.01,0,.03,0,.04-.02.4-.18.8-.37,1.19-.56.09-.05.19-.09.28-.14.38-.19.76-.38,1.13-.57.01,0,.03-.02.04-.02.39-.2.77-.41,1.15-.62,0,0,.02-.01.02-.02-.36-3.74-1.26-7.5-3.23-9.81Z"/></g></svg>