<?xml version="1.0" encoding="UTF-8"?><svg id="_レイヤー_2" xmlns="http://www.w3.org/2000/svg" viewBox="0 0 276.36 292.96"><defs><style>.cls-1{fill:#e86792;}.cls-2{fill:#fff;}.cls-3{fill:#00e1ff;}.cls-4{fill:#f2f2f2;}</style></defs><g id="Layer_1"><path class="cls-3" d="M154.13,260.42c0,16.92-1.59,30.84,7.95,30.63,8.74-.19,7.95-13.72,7.95-30.63s-3.56-30.63-7.95-30.63-7.95,13.72-7.95,30.63Z"/><path class="cls-3" d="M154.4,280.88c-.63,13.85,9.52,12,20.11,12s19.16-3.13,19.16-6.99-8.58-7-19.16-7-19.93-1.87-20.11,1.99Z"/><path class="cls-3" d="M111.24,260.42c0,16.92,1.59,30.84-7.95,30.63-8.74-.19-7.94-13.72-7.94-30.63s3.55-30.63,7.94-30.63,7.95,13.72,7.95,30.63Z"/><path class="cls-3" d="M110.97,280.88c.63,13.85-9.52,12-20.11,12s-19.16-3.13-19.16-6.99,8.58-7,19.16-7,19.93-1.87,20.11,1.99Z"/><path class="cls-3" d="M224.43,187.44c2.17-79.21-175.75-80.04-175.75,1.61,0,51.95,12.96,69.37,46.05,74.01,19.97,2.8,48.4,3.65,80.82,1,51.81-4.24,48.38-58.75,48.87-76.62Z"/><path class="cls-3" d="M208.48,64.66c-15.53,15.53-56.96,82.13-41.43,97.66,15.53,15.53,82.13-25.9,97.66-41.43,15.53-15.53,15.53-40.7,0-56.23-15.53-15.53-40.7-15.53-56.23,0Z"/><path class="cls-3" d="M67.88,64.66c15.53,15.53,56.96,82.13,41.43,97.66-15.53,15.53-82.13-25.9-97.66-41.43-15.53-15.53-15.53-40.7,0-56.23,15.53-15.53,40.7-15.53,56.23,0Z"/><path class="cls-3" d="M87.35,51.29c0,28.33,21.13,114.2,49.45,114.2s53.12-85.88,53.12-114.2S166.96,0,138.63,0s-51.29,22.96-51.29,51.29Z"/><polygon class="cls-4" points="153.87 102.27 151.31 111.74 146.95 103.54 153.87 102.27"/><polygon class="cls-4" points="122.95 101.51 124.37 111.22 129.67 103.6 122.95 101.51"/><path class="cls-2" d="M210.97,94.58c0,14,11.35,25.35,25.35,25.35s25.35-11.35,25.35-25.35-11.35-25.35-25.35-25.35-25.35,11.35-25.35,25.35Z"/><path d="M224.42,83.44c0,4.67,3.79,8.45,8.45,8.45s8.45-3.79,8.45-8.45-3.78-8.45-8.45-8.45-8.45,3.78-8.45,8.45Z"/><path class="cls-2" d="M228.93,79.6c0,1.33,1.08,2.4,2.4,2.4s2.4-1.07,2.4-2.4-1.07-2.4-2.4-2.4-2.4,1.08-2.4,2.4Z"/><path class="cls-2" d="M11.99,91.51c0,14,11.35,25.35,25.35,25.35s25.35-11.35,25.35-25.35-11.35-25.35-25.35-25.35-25.35,11.35-25.35,25.35Z"/><path d="M25.44,80.37c0,4.67,3.79,8.45,8.45,8.45s8.45-3.79,8.45-8.45-3.78-8.45-8.45-8.45-8.45,3.78-8.45,8.45Z"/><path class="cls-2" d="M29.95,76.53c0,1.33,1.08,2.4,2.4,2.4s2.4-1.07,2.4-2.4-1.08-2.4-2.4-2.4-2.4,1.07-2.4,2.4Z"/><path class="cls-2" d="M104.06,54.63c0,19.1,15.48,34.57,34.57,34.57s34.57-15.48,34.57-34.57-15.48-34.57-34.57-34.57-34.57,15.48-34.57,34.57Z"/><path d="M112.6,42.9c0,6.37,5.16,11.53,11.52,11.53s11.52-5.16,11.52-11.53-5.16-11.52-11.52-11.52-11.52,5.16-11.52,11.52Z"/><path class="cls-2" d="M118.75,37.66c0,1.81,1.47,3.27,3.27,3.27s3.27-1.47,3.27-3.27-1.46-3.28-3.27-3.28-3.27,1.47-3.27,3.28Z"/><path d="M167.11,92.06c.1-.3-.05-.63-.35-.73h0c-.3-.1-.63.05-.73.36h0s0,.03-.04.11h0c-.03.08-.08.2-.16.35h0c-.15.31-.4.77-.76,1.31h0c-.73,1.09-1.96,2.57-3.91,4.05h0c-3.9,2.96-10.71,5.98-22.39,5.98h0c-19.46-.01-26.18-10.54-26.92-11.77h0c-.05-.08-.07-.12-.07-.12h0c-.15-.28-.5-.38-.78-.24h0c-.28.15-.39.5-.24.78h0c.04.11,6.76,12.51,28.01,12.49h.09c23.7,0,28.25-12.41,28.27-12.58h0Z"/><path d="M169.39,93.55c.17-.27.1-.62-.17-.8h0l-4.42-2.88c-.27-.18-.62-.1-.8.17h0c-.17.27-.1.62.17.8h0l4.42,2.88c.1.06.21.09.32.09h0c.19,0,.37-.09.48-.26h0Z"/><path d="M109.68,93.87l3.84-3.2c.24-.2.28-.57.07-.81h0c-.21-.25-.57-.28-.81-.07h0l-3.84,3.2c-.24.2-.28.56-.07.81h0c.12.14.28.21.44.21h0c.13,0,.26-.04.37-.13h0Z"/><path d="M205.07,116.61c-1.61,2.48-1.85,5.36-.07,7.81,2.07,2.86,5.79,2.79,8.44.85.4-.29,1.74.29,1.38.56-2.83,2.07-6.71,2.27-9.6.11-3.33-2.49-3.76-6.49-1.54-9.9.24-.38,1.69.09,1.38.56h0Z"/><path d="M74.22,113.25c-4.89,3.3-9.97,7.56-12.13,13.22-.24.64-1.72.22-1.48-.4,2.23-5.85,7.4-10.25,12.46-13.66.52-.35,1.83.37,1.15.83h0Z"/><path class="cls-3" d="M204.15,164.15l7.49-10.37,33.99,33.99c5.03-.83,13.6-4.14,17.59-.99,6.89,5.45.08,9.54-6.11,10.28,15.38.55,5.22,21.53-4.26,5.86,3.84,8.84-5.05,16.65-9.6,8.45-2.91-5.23-4.3-8.85-4.82-12.94l-34.27-34.27Z"/><path class="cls-3" d="M70.43,164.15l-7.49-10.37-33.99,33.99c-5.03-.83-13.6-4.14-17.59-.99-6.9,5.45-.08,9.54,6.11,10.28-15.38.55-5.22,21.53,4.26,5.86-3.84,8.84,5.05,16.65,9.6,8.45,2.91-5.23,4.3-8.85,4.82-12.94l34.27-34.27Z"/><path d="M79.6,196c0,16.55,24.59,29.96,54.93,29.96s54.93-13.41,54.93-29.96-24.59-29.96-54.93-29.96-54.93,13.41-54.93,29.96Z"/><path class="cls-1" d="M134.53,225.96c-17.16,0-32.49-4.29-42.56-11.02,1.59-17.97,20.79-32.16,44.25-32.16s41.03,13.01,43.96,29.89c-9.86,8.02-26.62,13.29-45.65,13.29Z"/><path class="cls-2" d="M176.27,176.51c-4.51-2.87-10-5.27-16.19-7.05l4.04,36.71,12.16-29.66ZM159.71,169.36c-2.57-.72-5.26-1.34-8.05-1.84l3.51,10.04,4.54-8.2ZM150.41,167.3c-2.58-.42-5.24-.75-7.96-.96l3.73,8.91,4.23-7.95ZM132.63,166.05c-2.89.05-5.72.23-8.48.52l4.63,8.68,3.85-9.2ZM97.72,173.76l12.87,31.39,4.05-36.88,5.14,9.29,3.83-10.93c-9.84,1.08-18.72,3.6-25.89,7.13ZM134.53,166.03c-.43,0-.86,0-1.29,0l3.95,9.72,4.49-9.48c-2.34-.17-4.72-.25-7.14-.25Z"/></g></svg>