<?xml version="1.0" encoding="UTF-8"?><svg id="_レイヤー_2" xmlns="http://www.w3.org/2000/svg" viewBox="0 0 232 281.59"><defs><style>.cls-1{fill:#212121;}.cls-2{fill:#e86792;}.cls-3{fill:#1ccaff;}.cls-4{fill:#fff;}</style></defs><g id="Layer_1"><path class="cls-3" d="M216.99,229.8c.98-12.02,7.2-110.68-50.63-135.81l2.69-9.49c55.11,12.64,61.6,106.56,57.96,147.01,1.56,3.03,2.83,6.21,2.11,9.7-1.25,5.89-6.59,4.61-6.95.33-2.29,9.25-17.46,3.69-5.46-3.78-3.16.78-13.4,4.63-12.2-2.57.61-4.2,8.77-5.73,12.49-5.39Z"/><path class="cls-3" d="M12.33,229.8c-.98-12.02-7.2-110.68,50.63-135.81l-2.69-9.49C5.16,97.14-1.33,191.07,2.31,231.51c-1.56,3.03-2.83,6.21-2.11,9.7,1.25,5.89,6.59,4.61,6.95.33,2.29,9.25,17.46,3.69,5.46-3.78,3.16.78,13.4,4.63,12.2-2.57-.61-4.2-8.77-5.73-12.49-5.39Z"/><path class="cls-3" d="M193.05,222.8c36.29-108.98-2.8-198.02-80.36-197.64-64.38.31-89.05,51.04-92.31,96.65-1.09,38.01-7.13,96.61,24.36,119.42,31.1,22.52,133.4,26.36,148.31-18.42Z"/><path class="cls-4" d="M128.48,88.36c6.83,3.66,15.33,1.08,18.99-5.75,3.66-6.83,1.08-15.33-5.75-18.99-6.83-3.66-15.33-1.08-18.99,5.75-3.66,6.83-1.08,15.33,5.75,18.99Z"/><path class="cls-1" d="M126.96,82.45c2.54,1.36,5.71.4,7.08-2.14,1.36-2.55.4-5.71-2.14-7.07-2.55-1.36-5.71-.4-7.08,2.14-1.36,2.55-.4,5.71,2.14,7.07Z"/><path class="cls-4" d="M126.54,78.43c.76.41,1.7.12,2.11-.64.41-.76.12-1.7-.64-2.11-.76-.41-1.7-.12-2.11.64-.41.76-.12,1.7.64,2.11Z"/><path class="cls-4" d="M102.54,92.98c-9.84,5.74-22.47,2.43-28.22-7.42-5.74-9.84-2.42-22.47,7.42-28.22,9.84-5.75,22.47-2.43,28.22,7.41,5.75,9.84,2.43,22.47-7.41,28.22Z"/><path class="cls-1" d="M104.44,84.22c-3.67,2.14-8.37.9-10.51-2.76-2.14-3.67-.9-8.37,2.76-10.51,3.67-2.14,8.37-.9,10.51,2.76,2.14,3.67.9,8.37-2.76,10.51Z"/><path class="cls-4" d="M99.29,76.65c-1.09.64-2.5.27-3.14-.82-.64-1.09-.27-2.5.82-3.14,1.09-.64,2.5-.27,3.13.82.64,1.09.27,2.5-.82,3.14Z"/><path class="cls-3" d="M113.15,33.1c10.13-2.9,15.29-18.86,11.98-24.73-6.24-11.37-8.8,5.87-9.17,10.64-1.1-4.4-2.57-14.67-8.8-15.41-8.07-1.1-4.4,8.8-1.1,12.84-4.4-4.77-15.04-12.84-15.41-1.47-.37,7.34,10.64,15.04,15.41,18.71l7.09-.58Z"/><path class="cls-3" d="M157.67,49.39c7.96-24.61,20.99-58.64,50.67-47.05,6.52,2.9,31.85,15.2,20.99,26.06-7.24,7.96-20.99-9.41-31.13-7.96-15.2,2.9-23.89,28.23-27.51,40.54l-13.03-11.58Z"/><path class="cls-3" d="M72.22,42.91C65.7,19.56,27.16-16.27,9.24,14.68c-3.8,6.52-13.03,28.77,2.17,29.86,13.03,1.09,6.51-18.46,18.46-20.63,16.83-2.71,26.6,22.26,33.12,32.57l9.23-13.57Z"/><path d="M182.6,113.49c-4.34-40.72-38,8.69-93.38-4.89-15.1-3.7-38.55-15.74-46.15,0-10.32,21.72,6.51,60.26,29.86,68.41,28.23,9.23,74.38,7.06,98.26-20.63,7.2-8.35,12.9-28.81,11.4-42.89Z"/><path class="cls-2" d="M109.31,123.8c27.95,0,52.88,7.27,69.2,18.62-2,5.74-4.55,10.74-7.31,13.95-23.89,27.69-70.03,29.86-98.26,20.63-13.73-4.79-25.2-20.1-30.23-36.31,16.31-10.36,40.1-16.9,66.6-16.9Z"/><path class="cls-4" d="M63.92,123.95c3-5.18,4.15-14.06,4.54-21.53-4.04-1.03-8.02-1.74-11.64-1.71-.06,9,.79,19.2,7.1,23.24ZM66.59,173.97c2.05,1.25,4.17,2.28,6.35,3.04,1.75.57,3.56,1.1,5.44,1.58-.13-8.05-1.05-19.76-4.69-26.04-5.89,3.77-7.03,12.91-7.1,21.43ZM145.72,150.73c-3.55,6.13-4.51,17.44-4.67,25.46,4.06-1.44,8.01-3.16,11.76-5.2-.17-8.17-1.46-16.67-7.08-20.27ZM165.43,97.7c-3.41.75-7.3,2.08-11.64,3.61.31,7.74,1.4,17.48,4.6,23,7.12-4.56,7.29-16.95,7.04-26.62Z"/><path class="cls-3" d="M130.56,253.53c0,14.59-1.37,26.6,6.85,26.42,7.54-.17,6.85-11.83,6.85-26.42s-3.07-26.42-6.85-26.42-6.85,11.83-6.85,26.42Z"/><path class="cls-3" d="M130.79,271.17c-.54,11.94,8.21,10.35,17.34,10.35s16.53-2.7,16.53-6.03-7.4-6.03-16.53-6.03-17.19-1.61-17.34,1.72Z"/><path class="cls-3" d="M93.56,253.53c0,14.59,1.37,26.6-6.85,26.42-7.54-.17-6.85-11.83-6.85-26.42s3.07-26.42,6.85-26.42,6.85,11.83,6.85,26.42Z"/><path class="cls-3" d="M93.33,271.17c.54,11.94-8.22,10.35-17.34,10.35s-16.53-2.7-16.53-6.03,7.4-6.03,16.53-6.03,17.19-1.61,17.34,1.72Z"/></g></svg>