<?xml version="1.0" encoding="UTF-8"?><svg id="_レイヤー_2" xmlns="http://www.w3.org/2000/svg" viewBox="0 0 321.14 287.19"><defs><style>.cls-1{fill:#05ccdb;}.cls-2{fill:#e86792;}.cls-3{fill:#fff;}.cls-4{fill:#00e1ff;}.cls-5{fill:#c94f7e;}</style></defs><g id="Layer_1"><path class="cls-4" d="M113.97,243.68h-5.53v35.33c-3.4-1.72-8.03-3.06-13.13-3.06-10.46,0-18.95,5.59-18.95,8.68s8.48,2.5,18.95,2.5,18.95.59,18.95-2.5l-.29-40.96Z"/><path class="cls-4" d="M207.17,243.68h5.52v35.33c3.41-1.72,8.03-3.06,13.13-3.06,10.46,0,18.95,5.59,18.95,8.68s-8.48,2.5-18.95,2.5-18.95.59-18.95-2.5l.29-40.96Z"/><path class="cls-4" d="M270.29,119.71c-12.73-51.82-45.37-106.41-113.1-106.41-52.8,0-96.31,49.97-102.28,102.13-4.47,39.14-9.33,72.54.61,104.33,14.23,45.54,108.91,42.77,108.91,42.77,0,0,85.71,5.5,108.03-42.77,9.3-20.11,5.22-69.97-2.17-100.06Z"/><path class="cls-4" d="M280.15,138.76c8.96,11.7,16.02,24.32,21.08,37.64l-.07.06c-2.12,2.07-9.42,8.8-9.1,12.02.67,6.67,9.56,4.13,11.97-1.14-.71,3.98,1.03,9.87,5.62,9.61,6.49-.18,2.88-10.75.46-13.99,3.29,2.69,11.77,8.36,10.98.53-.44-4.36-8.72-6.93-13.56-8.94-3.68-10.04-8.54-20.29-14.65-29.89-10.53-16.53-29.8-35.91-44.43-46.22l-17.36,2.64c3.57.95,7.19,2.68,10.46,4.36,15.39,7.9,28.16,19.68,38.6,33.32Z"/><path class="cls-4" d="M11.03,182.96c-2.41,3.25-6.03,13.81.46,13.99,4.58.26,6.33-5.63,5.62-9.61,2.41,5.27,11.31,7.81,11.97,1.14.32-3.22-6.98-9.95-9.1-12.02l-.07-.06c5.06-13.33,12.13-25.95,21.08-37.64,10.44-13.63,23.21-25.42,38.6-33.32,3.27-1.68,6.89-3.41,10.46-4.36l-17.36-2.64c-14.62,10.31-33.9,29.68-44.43,46.22-6.11,9.6-10.97,19.85-14.65,29.89-4.84,2.01-13.12,4.58-13.56,8.94-.78,7.83,7.69,2.16,10.98-.53Z"/><path class="cls-3" d="M140.21,30.23c-10.2,0-18.47,8.27-18.47,18.48s8.27,18.48,18.47,18.48,18.47-8.27,18.47-18.48-8.27-18.48-18.47-18.48Z"/><path d="M147.83,39.87c-2.94.55-4.87,3.38-4.32,6.31.55,2.94,3.37,4.87,6.31,4.32,2.94-.55,4.87-3.37,4.32-6.31-.55-2.93-3.38-4.87-6.31-4.32Z"/><path class="cls-3" d="M149.84,41.87c-.74.14-1.23.85-1.09,1.59.14.74.85,1.23,1.6,1.09.74-.14,1.23-.85,1.09-1.59-.14-.74-.86-1.23-1.6-1.09Z"/><path class="cls-3" d="M154.7,64.65c-9.8,2.85-15.43,13.1-12.58,22.9,2.85,9.8,13.1,15.43,22.9,12.58,9.8-2.85,15.43-13.1,12.58-22.9-2.85-9.8-13.1-15.43-22.9-12.58Z"/><path d="M164.71,71.78c-2.67,1.35-3.73,4.6-2.39,7.27,1.35,2.67,4.6,3.74,7.27,2.39,2.66-1.35,3.73-4.6,2.38-7.27-1.35-2.66-4.6-3.73-7.27-2.39Z"/><path class="cls-3" d="M167.19,73.13c-.67.34-.95,1.16-.61,1.84.34.67,1.16.94,1.84.6.68-.34.95-1.16.6-1.84-.34-.67-1.16-.94-1.84-.6Z"/><path class="cls-3" d="M191.77,61.77c7.21-7.21,7.21-18.91,0-26.13-7.22-7.22-18.91-7.22-26.13,0-7.22,7.22-7.22,18.91,0,26.13,7.21,7.21,18.91,7.22,26.13,0Z"/><path d="M192.53,47.37c1.69-2.46,1.06-5.83-1.41-7.52-2.47-1.69-5.83-1.06-7.52,1.41-1.69,2.46-1.05,5.83,1.41,7.52,2.46,1.69,5.83,1.06,7.52-1.41Z"/><path class="cls-3" d="M189.7,47.38c.43-.62.27-1.47-.35-1.9-.62-.43-1.48-.26-1.9.36-.43.62-.27,1.47.36,1.9.62.43,1.47.27,1.9-.36Z"/><path class="cls-4" d="M70.75,41.67c-13.62-11.96-26.51-21.43-31.54-25.04h0c-1.44-1.03-2.23-1.58-2.23-1.58h0l2.01-2.91s12.98,8.97,28.27,21.86h0c15.3,12.91,32.93,29.69,42.4,45.69h0l-3.05,1.8c-7.9-13.39-22.24-27.87-35.86-39.82h0Z"/><path class="cls-1" d="M47.28,11.06c0,6.11-4.95,11.06-11.06,11.06s-11.06-4.95-11.06-11.06S30.12,0,36.23,0s11.06,4.95,11.06,11.06Z"/><path class="cls-3" d="M42.35,7.83c0,1.6-1.29,2.89-2.89,2.89s-2.89-1.29-2.89-2.89,1.29-2.9,2.89-2.9,2.89,1.3,2.89,2.9Z"/><path class="cls-4" d="M251.21,41.67c13.62-11.96,26.5-21.43,31.54-25.04h0c1.44-1.03,2.23-1.58,2.23-1.58h0l-2.01-2.91s-12.98,8.97-28.27,21.86h0c-15.29,12.91-32.93,29.69-42.4,45.69h0l3.05,1.8c7.9-13.39,22.24-27.87,35.86-39.82h0Z"/><path class="cls-1" d="M274.68,11.06c0,6.11,4.95,11.06,11.06,11.06s11.06-4.95,11.06-11.06-4.95-11.06-11.06-11.06-11.06,4.95-11.06,11.06Z"/><path class="cls-3" d="M279.61,7.83c0,1.6,1.29,2.89,2.89,2.89s2.89-1.29,2.89-2.89-1.29-2.9-2.89-2.9-2.89,1.3-2.89,2.9Z"/><path class="cls-2" d="M168.86,119c.89,17.24,22.89,22.3,23.48,2.68,0-5.35-.89-8.32-3.86-12.78,0,0-9.16,6.67-12.69,7.88-3.73,1.27-6.93,2.23-6.93,2.23Z"/><path class="cls-5" d="M178.77,115.31c4.67,2.1,7.43,9.54,4.68,14.01-.09.15.71.09.85-.14,2.83-4.6-.06-12.09-4.83-14.23-.21-.09-1,.23-.7.36h0Z"/><path d="M135.4,109.38c19.41,20,51.68,9.79,64.38-12.53.58-1.02-2-.71-2.39-.01-5.85,10.27-15.56,18.1-27.07,21.01-11.86,3-24.05-.74-32.51-9.46-.6-.62-3.05.33-2.41.99h0Z"/><path d="M138.82,103.5c-1.64,3.01-3.49,6.59-7,7.7-1.52.48-1.19,1.81.35,1.32,4.51-1.42,6.89-4.98,9.05-8.95.6-1.09-2-.82-2.41-.07h0Z"/><path d="M194.7,95.22c1.89,1.55,3.94,2.83,6.25,3.64.61.21,2.93-.75,2.11-1.04-2.2-.77-4.14-2.02-5.94-3.5-.57-.47-2.87.54-2.43.9h0Z"/></g></svg>