<?xml version="1.0" encoding="UTF-8"?><svg id="_レイヤー_2" xmlns="http://www.w3.org/2000/svg" viewBox="0 0 238.16 281.59"><defs><style>.cls-1{fill:#e86792;}.cls-2{fill:#fff;}.cls-3{fill:#bed63a;}</style></defs><g id="Layer_1"><path class="cls-3" d="M169.09,34.58c-.73.34-1.42.76-2.08,1.21-.08.07-.78.6-.97.76-.54.47-1.05.97-1.55,1.48-.83.84-1.6,1.75-2.35,2.67,0,0,0,0,0,0-.14.18-.27.36-.4.55-.45.62-.88,1.25-1.31,1.88-1.41,2.1-2.66,4.3-3.84,6.54-1.02,1.93-1.95,3.9-2.82,5.89-.07.16-.12.26-.15.33,0,0-.03.1-.19.52-.3.77-.55,1.56-.8,2.35-.33,1.06-.6,2.14-.84,3.23-3.03-1.27-6.34-1.98-9.79-1.98-.83,0-1.65.04-2.46.12,1.11-5.88,3.59-11.42,6.34-16.71,2.71-5.2,6.01-10.26,10.15-14.45,4.21-4.27,10.23-7.83,16.44-7.07,3.35.41,6.19,2.51,6.19,6.2,0,3.07-2.83,6.61-6.19,6.2-.5-.06-.99-.1-1.5-.1-.16,0-.44.03-.68.06-.31.08-.63.17-.94.26-.11.03-.2.06-.27.08Z"/><path class="cls-3" d="M78.8,34.58c.73.34,1.41.76,2.08,1.21.08.07.78.6.97.76.54.47,1.05.97,1.55,1.48.83.84,1.6,1.75,2.35,2.67,0,0,0,0,0,0,.13.18.27.36.4.55.45.62.88,1.25,1.3,1.88,1.41,2.1,2.67,4.3,3.84,6.54,1.02,1.93,1.95,3.9,2.82,5.89.07.16.11.26.15.33,0,0,.03.1.19.52.3.77.55,1.56.8,2.35.33,1.06.6,2.14.84,3.23,3.03-1.27,6.34-1.98,9.79-1.98.83,0,1.65.04,2.46.12-1.11-5.88-3.59-11.42-6.34-16.71-2.71-5.2-6.01-10.26-10.15-14.45-4.21-4.27-10.23-7.83-16.44-7.07-3.35.41-6.2,2.51-6.2,6.2,0,3.07,2.84,6.61,6.2,6.2.5-.06.99-.1,1.5-.1.16,0,.44.03.68.06.31.08.63.17.94.26.11.03.2.06.27.08Z"/><circle class="cls-3" cx="168.72" cy="23.59" r="23.59" transform="translate(32.74 126.21) rotate(-45)"/><circle class="cls-2" cx="168.72" cy="23.59" r="17.75" transform="translate(32.74 126.21) rotate(-45)"/><path d="M157.62,17.16c0,2.91,2.36,5.26,5.26,5.26s5.26-2.35,5.26-5.26-2.35-5.26-5.26-5.26-5.26,2.35-5.26,5.26Z"/><path class="cls-2" d="M160.18,14.9c0,.81.65,1.46,1.46,1.46s1.46-.65,1.46-1.46-.65-1.46-1.46-1.46-1.46.65-1.46,1.46Z"/><circle class="cls-3" cx="81.82" cy="24.6" r="23.59" transform="translate(-.31 1.05) rotate(-.73)"/><path class="cls-2" d="M64.07,24.6c0,9.8,7.95,17.75,17.75,17.75s17.75-7.95,17.75-17.75-7.94-17.75-17.75-17.75-17.75,7.95-17.75,17.75Z"/><circle cx="75.98" cy="18.17" r="5.26"/><path class="cls-2" d="M73.27,15.91c0,.81.65,1.46,1.46,1.46s1.46-.65,1.46-1.46-.66-1.46-1.46-1.46-1.46.66-1.46,1.46Z"/><path class="cls-3" d="M2.53,255.52c3.36-10.63,15.98-23.45,22.36-34.12,4.03-6.08,13.98-9.59,14.04-40.55.14-67.57,8.32-134.84,101.62-125.6,67.53,6.69,69.15,67.98,70.26,123.58.58,29.08,19.77,60.26,25.35,79.06,4.72,15.9.89,21.99-9.2,16.59-26.55-14.22-21.24,4.15-33.51,4.74-13.19.64-9.56-9.08-16.99-9.08-8.5,0-16.7,9.65-22,9.93-13.63.73-13.52-9.44-20.95-10.33-18.54-2.21-13.12,11.85-30.44,11.85-9.56,0-11.09-11.26-19.59-13.03-11.68-1.78-15.4,10.42-23.95,10.66-20.53.59-11.5-16.84-24.19-16-10.05.67-44.93,30.66-32.8-7.7Z"/><path class="cls-1" d="M89.83,117.86c9,5.95,19.66,9.21,30.57,9.21,1.09,0,2.18-.04,3.26-.1-.04.18-.07.36-.1.54-3.37,16.52-13.79,28.35-23.27,26.41-9.48-1.93-14.44-16.9-11.07-33.42.18-.9.39-1.78.61-2.65Z"/><path d="M101.59,146.73c.18-10.95,3-17.11,4.39-19.49h0c.47-.79.76-1.16.76-1.16h0c.06-.08.05-.19-.03-.26h0c-.08-.06-.2-.05-.26.03h0s-5,6.21-5.23,20.88h0c0,.1.08.19.18.19h0c.1,0,.18-.08.18-.18h0Z"/><path d="M186.22,98.36c-10.71,22.33-37.74,30.89-60.88,30.62-21.06-.25-47.88-8.45-54.83-30.85-.06-.2-.12-.4-.17-.6-.45-1.54,1.95-2.19,2.39-.66,6.58,22.77,34.79,29.97,55.62,29.62,21.43-.37,45.88-8.83,55.74-29.38.69-1.44,2.83-.18,2.14,1.25h0Z"/></g></svg>