<?xml version="1.0" encoding="UTF-8"?><svg id="_レイヤー_2" xmlns="http://www.w3.org/2000/svg" viewBox="0 0 271.49 286.77"><defs><style>.cls-1{fill:#ffd100;}.cls-2{fill:#212121;}.cls-3{fill:#e86792;}.cls-4{fill:#fff;}.cls-5{fill:#4d4d4d;}</style></defs><g id="Layer_1"><path class="cls-1" d="M260.6,238.17c.87-10.62,6.35-97.72-44.7-119.9l2.38-8.38c48.66,11.16,54.39,94.08,51.17,129.79,1.38,2.67,2.5,5.48,1.86,8.56-1.1,5.2-5.82,4.07-6.14.3-2.02,8.16-15.41,3.26-4.82-3.34-2.79.69-11.83,4.09-10.77-2.27.54-3.71,7.74-5.06,11.03-4.76Z"/><path class="cls-1" d="M10.89,239.13c-.86-10.62-6.35-97.72,44.71-119.9l-2.38-8.38C4.56,122.01-1.17,204.93,2.04,240.64c-1.38,2.67-2.5,5.48-1.86,8.56,1.1,5.2,5.82,4.07,6.14.29,2.02,8.17,15.41,3.26,4.82-3.34,2.79.69,11.83,4.08,10.77-2.27-.54-3.71-7.74-5.06-11.03-4.76Z"/><path class="cls-1" d="M149.54,261.99c0,12.88-1.21,23.49,6.05,23.33,6.66-.15,6.05-10.44,6.05-23.33s-2.71-23.33-6.05-23.33-6.05,10.44-6.05,23.33Z"/><path class="cls-1" d="M149.74,277.57c-.48,10.54,7.25,9.13,15.31,9.13s14.59-2.38,14.59-5.33-6.54-5.32-14.59-5.32-15.18-1.42-15.31,1.52Z"/><path class="cls-1" d="M116.87,261.99c0,12.88,1.21,23.49-6.05,23.33-6.66-.15-6.05-10.44-6.05-23.33s2.71-23.33,6.05-23.33,6.05,10.44,6.05,23.33Z"/><path class="cls-1" d="M116.67,277.57c.48,10.54-7.25,9.13-15.31,9.13s-14.59-2.38-14.59-5.33,6.53-5.32,14.59-5.32,15.18-1.42,15.31,1.52Z"/><path class="cls-1" d="M26.66,204.58c9.92,24.98,28.5,34.4,47.33,40.93,19.22,5.99,38.68,9.08,59.21,9.06,20.52.02,40-3.07,59.21-9.06,18.83-6.52,37.41-15.95,47.33-40.93,9.65-23.87,7.64-64.53-11.33-102.21-18.31-37.17-53.58-71.36-95.21-70.36-41.63-1-76.9,33.19-95.21,70.36-18.97,37.68-20.98,78.35-11.33,102.21Z"/><path class="cls-1" d="M221.74,100.08c-16.14,9.42-36.87,3.98-46.29-12.16-9.43-16.14-3.98-36.87,12.16-46.29,16.14-9.42,36.87-3.98,46.29,12.16,9.42,16.14,3.98,36.87-12.16,46.29Z"/><path class="cls-4" d="M218.23,94.06c-12.82,7.48-29.27,3.16-36.76-9.66-7.48-12.82-3.16-29.27,9.66-36.76,12.82-7.48,29.27-3.16,36.76,9.66,7.48,12.82,3.16,29.27-9.66,36.76Z"/><path class="cls-2" d="M220.71,82.64c-4.77,2.79-10.91,1.18-13.69-3.6-2.79-4.77-1.18-10.91,3.6-13.69s10.91-1.18,13.69,3.6c2.79,4.78,1.18,10.91-3.6,13.69Z"/><path class="cls-4" d="M214,72.78c-1.42.83-3.25.35-4.08-1.07-.83-1.42-.35-3.25,1.07-4.08,1.42-.83,3.25-.35,4.08,1.07.83,1.43.35,3.25-1.07,4.09Z"/><path class="cls-1" d="M80.59,100.08c-16.14,9.42-36.87,3.98-46.29-12.16-9.42-16.14-3.98-36.87,12.17-46.29,16.14-9.42,36.87-3.98,46.29,12.16,9.42,16.14,3.98,36.87-12.16,46.29Z"/><path class="cls-4" d="M77.08,94.06c-12.82,7.48-29.27,3.16-36.76-9.66-7.48-12.82-3.16-29.27,9.66-36.76,12.82-7.48,29.27-3.16,36.76,9.66,7.48,12.82,3.16,29.27-9.66,36.76Z"/><path class="cls-2" d="M79.56,82.64c-4.77,2.79-10.91,1.18-13.69-3.6-2.79-4.77-1.18-10.91,3.6-13.69,4.77-2.79,10.91-1.18,13.69,3.6,2.79,4.78,1.18,10.91-3.6,13.69Z"/><path class="cls-4" d="M72.85,72.78c-1.42.83-3.25.35-4.08-1.07-.83-1.42-.35-3.25,1.07-4.08,1.43-.83,3.25-.35,4.08,1.07.83,1.43.35,3.25-1.07,4.09Z"/><path d="M208.19,141.59c41.36-9.45,21.23,18.58-11.67,24.29-25.48,5-47.82,8.46-73.24,7.14-27.6-1.43-63.15-4.21-78.77-18.71-26-24.12,28.65-8.37,44.57-6.23,33.97,4.29,90.09.14,119.11-6.5Z"/><path class="cls-3" d="M135.76,153.18c26.98,0,51.11,4.38,67.23,11.26-2.09.57-4.25,1.06-6.47,1.45-25.48,5-47.82,8.46-73.24,7.14-18.21-.94-39.89-2.47-57.02-7.58,16.07-7.47,41.23-12.28,69.5-12.28Z"/><polygon class="cls-4" points="187.45 167.56 183.5 131.08 161.93 126.04 168.38 170.75 187.45 167.56"/><polygon class="cls-4" points="104.87 171.86 113.52 124.61 92.04 125.95 83.39 169.32 104.87 171.86"/><path class="cls-1" d="M167.82,47.72c18.54-19.17,46.23-35.47,71.15-15.66,9.59,7.67,18.01,24.12,14.06,36.96-4.26,13.85-17.73,31.86-8.95,38.77,17.04,13.42,24.92-33.87,24.29-42.82-1.28-30.68-15.34-51.77-47.93-53.68-24.47-1-46.59,10.29-58.15,29.91-3.24,5.49,5.53,6.52,5.53,6.52Z"/><path class="cls-1" d="M101.78,47.72c-18.54-19.17-46.23-35.47-71.15-15.66-9.59,7.67-18.01,24.12-14.06,36.96,4.26,13.85,17.73,31.86,8.95,38.77C8.47,121.22.59,73.93,1.23,64.98,2.51,34.3,16.57,13.21,49.16,11.3c24.47-1,46.59,10.29,58.15,29.91,3.24,5.49-5.53,6.52-5.53,6.52Z"/><path class="cls-1" d="M139.3,37.59c-2.93-.25-5.83-.75-8.74-1.25,0-.1,0-.2,0-.3l-.2.27c-1.14-.2-2.28-.4-3.42-.58-.9-3.38-2.43-6.77-5.14-8.88-3.41-2.98-8.31-.85-11.5-3.2-3.84-2.77-1.92-7.24,1.92-8.95,8.3-3.35,15.28,3.46,18.71,10.76.02-.89.04-1.77.04-2.66,0-4.15-1.6-32.27,7.99-19.49,4.58,6.37,1.05,18.42-1.54,27.26,3.01-3.89,19.77-14.89,21.68-4.41.96,4.78-16.52,3.52-19.78,11.44Z"/><path class="cls-5" d="M142.21,78.05c3.47,3.08,5.34,7.87,6.44,12.26,1.24,4.97,1.5,10.67-.72,15.4-2.21,4.7-7.07,6.87-12.09,6.72-4.59-.14-8.53-2.67-11.05-6.42-2.76-4.1-3.81-9.23-3.85-14.11-.04-4.7,1.01-9.8,3.99-13.55.24-.31,1.43.12,1.15.47-3.02,3.81-3.94,8.98-3.9,13.73.04,5.12,1.4,10.53,4.59,14.62,3.48,4.47,9.31,5.76,14.49,3.56,5.07-2.16,6.91-7.7,7.06-12.81.12-3.8-.67-7.64-1.93-11.21-1.09-3.08-2.67-6.29-5.15-8.49-.52-.46.71-.41.98-.16h0Z"/></g></svg>