<?xml version="1.0" encoding="UTF-8"?><svg id="_レイヤー_2" xmlns="http://www.w3.org/2000/svg" viewBox="0 0 297.48 287.19"><defs><style>.cls-1{fill:#fff;}.cls-2{fill:#e5d405;}.cls-3{fill:#fff100;}</style></defs><g id="Layer_1"><path class="cls-3" d="M36.31,25.47s-.37,34.54,25.25,60.17l26.37-33.43s-7.8-26.74-51.63-26.74Z"/><path class="cls-2" d="M48.87,40.11s-.19,17.73,12.96,30.89l13.54-17.16s-4-13.73-26.5-13.73Z"/><path class="cls-3" d="M148.34,58.09c1.42,10.06-1.45,14.7-4.52,16.47-3.2,1.74-6.61.62-9.28-1.6-2.81-2.38-4.51-6.22-7.59-11.99-2.98-5.68-7.35-13.31-13.28-21.11-5.77-7.91-11.47-14.21-13.64-19.59-2.23-5.22-.92-9.52,5.91-9.65,6.58-.21,17.4,5.7,25.97,15.29,8.72,9.4,15.19,22.48,16.43,32.18Z"/><path class="cls-3" d="M157.3,64.97c-3.2,9.68-7.94,12.62-11.57,12.89-3.74.18-6.38-2.3-7.86-5.46-1.53-3.37-1.38-7.56-1.63-14.1-.21-6.41-1.24-15.62-2.77-24.78-1.62-9.66.46-17.35,2.87-23.05,2.28-5.39,7.07-12.67,13.44-9.83,6.17,2.67,9.25,16.11,9.96,28.34.75,12.72.77,26.71-2.44,35.99Z"/><path class="cls-3" d="M142.42,59.05c-1.4,10.06,1.48,14.69,4.55,16.46,3.21,1.74,6.61.61,9.28-1.61,2.81-2.39,4.5-6.23,7.57-12.01,2.97-5.69,7.32-13.32,13.24-21.13,5.76-7.92,11.45-14.23,13.61-19.61,2.22-5.22.9-9.52-5.93-9.64-6.58-.19-17.39,5.73-25.94,15.34-8.7,9.41-15.15,22.5-16.37,32.2Z"/><path class="cls-3" d="M257.52,25.47s.37,34.54-25.26,60.17l-26.37-33.43s7.8-26.74,51.63-26.74Z"/><path class="cls-2" d="M244.96,40.11s.19,17.73-12.96,30.89l-13.54-17.16s4-13.73,26.5-13.73Z"/><path class="cls-3" d="M117.54,222.37h-5.12v52.64c-3.16-2.57-7.44-4.55-12.16-4.55-9.69,0-17.55,8.33-17.55,12.94s7.86,3.73,17.55,3.73,17.55.87,17.55-3.73l-.27-61.02Z"/><path class="cls-3" d="M179.95,222.37h5.12v52.64c3.16-2.57,7.44-4.55,12.16-4.55,9.69,0,17.55,8.33,17.55,12.94s-7.86,3.73-17.55,3.73-17.55.87-17.55-3.73l.27-61.02Z"/><path class="cls-3" d="M37.97,157.42c-8.3,10.83-14.84,22.53-19.53,34.87l.07.05c1.96,1.92,8.73,8.15,8.43,11.14-.62,6.18-8.86,3.82-11.09-1.06.66,3.69-.96,9.15-5.21,8.91-6.01-.17-2.66-9.96-.42-12.96-3.05,2.49-10.9,7.74-10.17.49.4-4.04,8.08-6.42,12.56-8.28,3.41-9.3,7.91-18.79,13.57-27.69,9.75-15.32,27.61-33.27,41.16-42.81l16.08,2.45c-3.3.88-6.66,2.48-9.69,4.04-14.26,7.32-26.08,18.24-35.76,30.86Z"/><path class="cls-3" d="M287.27,198.36c2.24,3.01,5.59,12.79-.43,12.96-4.25.24-5.86-5.22-5.2-8.91-2.23,4.88-10.47,7.24-11.09,1.06-.3-2.98,6.47-9.22,8.43-11.14l.07-.05c-4.69-12.34-11.24-24.04-19.53-34.87-9.67-12.63-21.5-23.55-35.75-30.86-3.03-1.55-6.39-3.16-9.69-4.04l16.08-2.45c13.55,9.55,31.4,27.5,41.15,42.81,5.66,8.89,10.17,18.38,13.57,27.69,4.49,1.86,12.16,4.25,12.56,8.28.72,7.25-7.12,2-10.17-.49Z"/><path class="cls-3" d="M261.77,194.44c2.23,21.78-17.01,41.56-43.03,43.01-46.63,2.62-93.37,2.62-140,0-26.02-1.45-45.26-21.23-43.03-43.01,3.31-34.88,4.68-71.33,15.56-104.65,7.12-21.82,37.35-64.38,100.6-64.38,46.31-.05,84.69,34.32,95.12,64.38,11.49,33.12,11.47,69.77,14.78,104.65Z"/><path class="cls-1" d="M120.24,62.79c-12.28,0-22.23,9.95-22.23,22.23s9.95,22.23,22.23,22.23,22.23-9.95,22.23-22.23-9.95-22.23-22.23-22.23Z"/><path d="M127.11,75.67c-3.53.66-5.86,4.06-5.2,7.59.66,3.53,4.06,5.86,7.59,5.2,3.53-.66,5.86-4.06,5.2-7.59-.66-3.53-4.06-5.86-7.59-5.2Z"/><path class="cls-1" d="M129.53,78.06c-.89.17-1.48,1.03-1.31,1.92.17.89,1.03,1.48,1.92,1.31.89-.17,1.48-1.02,1.31-1.92-.17-.89-1.03-1.48-1.92-1.31Z"/><path class="cls-1" d="M173.86,62.79c-12.28,0-22.23,9.95-22.23,22.23s9.95,22.23,22.23,22.23,22.23-9.95,22.23-22.23-9.95-22.23-22.23-22.23Z"/><path d="M180.73,75.67c-3.53.66-5.86,4.06-5.2,7.59.66,3.53,4.06,5.86,7.59,5.2,3.53-.66,5.86-4.06,5.2-7.59-.66-3.53-4.06-5.86-7.59-5.2Z"/><path class="cls-1" d="M183.14,78.06c-.89.17-1.48,1.03-1.32,1.92.17.89,1.03,1.48,1.92,1.31.89-.17,1.48-1.02,1.31-1.92-.17-.89-1.03-1.48-1.92-1.31Z"/><path d="M105.21,142.97c2.1-3.3,4.44-4.75,8.03-2.83,1.51.8,2.93,1.75,4.5,2.45,2.87,1.29,6.27.87,8.79-.93,2.28-1.63,3.68-3.24,6.68-3.67,2.91-.41,5.3,1.34,7.5,2.96,3.3,2.44,6.64,2.93,10.64,1.77,2.68-.78,3.89-3.51,6.53-4.33,4.99-1.56,7.43,1.63,11.34,3.61,2.61,1.33,6.14,1.75,8.83.5,1.64-.77,3.15-1.81,4.8-2.57,3.98-1.85,7.6-.55,10.66,2.33.38.36,1.5-.13,1.08-.52-3.37-3.16-7.07-4.43-11.5-2.81-1.8.66-3.42,1.73-5.1,2.64-2.67,1.47-6.28.71-8.82-.77-3.33-1.93-5.12-3.85-9.27-3.59-1.47.09-3.13.45-4.35,1.31-1.3.91-2.19,2.26-3.58,3.05-5.86,3.27-9.74-1.8-14.56-3.89-4.17-1.81-8.1.44-11.19,3.08-4.8,4.09-9.26-.2-13.74-2.1-3.76-1.59-6.51,1.24-8.39,4.19-.35.55.86.56,1.13.13h0Z"/></g></svg>