<?xml version="1.0" encoding="UTF-8"?><svg id="_レイヤー_2" xmlns="http://www.w3.org/2000/svg" viewBox="0 0 299.01 287.19"><defs><style>.cls-1{fill:#ab4a9c;}.cls-2{fill:#913a87;}.cls-3{fill:#e86792;}.cls-4{fill:#fff;}</style></defs><g id="Layer_1"><path class="cls-2" d="M192.1,38.68c-.44-.73.32-1.41,1.68-1.52l17.47-1.39c1.36-.11,1.86.74,1.12,1.88l-9.56,14.69c-.74,1.14-1.7,1.47-2.14.75l-8.56-14.4Z"/><path class="cls-2" d="M200.28,51.35c-.16-.83.78-1.22,2.1-.86l16.89,4.65c1.31.36,1.5,1.33.41,2.14l-14,10.55c-1.08.82-2.1.8-2.26-.03l-3.14-16.46Z"/><path class="cls-2" d="M202.53,66.7c-.12-.84.84-1.18,2.14-.75l16.63,5.54c1.29.43,1.42,1.4.29,2.16l-14.53,9.79c-1.13.76-2.15.69-2.26-.15l-2.26-16.6Z"/><path class="cls-2" d="M204.06,84.2c-.17-.83.76-1.23,2.08-.89l16.97,4.38c1.32.34,1.52,1.3.45,2.14l-13.83,10.77c-1.07.84-2.09.84-2.27,0l-3.4-16.41Z"/><path class="cls-2" d="M207.1,99.36c-.16-.83.78-1.22,2.1-.86l16.89,4.65c1.31.36,1.49,1.33.41,2.15l-14,10.55c-1.09.82-2.11.81-2.27-.03l-3.13-16.46Z"/><path class="cls-2" d="M209.94,116.48c-.27-.81.61-1.31,1.96-1.13l17.36,2.37c1.35.19,1.66,1.12.69,2.07l-12.48,12.31c-.97.95-1.98,1.08-2.25.27l-5.29-15.89Z"/><path class="cls-2" d="M215.35,133.27c-.36-.77.47-1.37,1.83-1.33l17.52.51c1.36.04,1.77.94.9,1.99l-11.1,13.56c-.86,1.05-1.85,1.28-2.21.51l-6.95-15.24Z"/><path class="cls-3" d="M137.24,106.79c-22.72,3.79-37.88-7.58-59.09-14.39-9.85-3.03-18.18-3.79-26.51-11.36-6.82-6.06-10.61-21.97-20.45-25.75-23.48-8.33-25,32.57-7.58,42.42,12.88,7.58,39.39,4.55,54.54,8.33,20.45,5.3,40.91,10.23,61.36,11.74l-2.27-10.99Z"/><path class="cls-4" d="M78,115.65c-1.56-.48-4.79,1.41-6.33,4.16,2.47,1.12,5.09,2.04,7.74,2.75.02-.06.04-.11.06-.17,1.04-2.96.1-6.23-1.47-6.74Z"/><path class="cls-4" d="M71.58,113.35c-1.28-.63-4.45.62-6.28,2.86,1.89,1.33,4,2.52,6.23,3.53.05-.08.1-.16.15-.24,1.43-2.47,1.19-5.49-.1-6.15Z"/><path class="cls-4" d="M136.73,115.85c-.6-1.05-5.3-4.28-6.64-3.78-1.44.56-2.3,3.48-1.54,6.21-1.33-2.54-4.04-4.29-5.53-3.89-1.49.41-2.72,3.23-2.34,6.03-.98-2.66-3.41-4.68-4.94-4.44-1.53.26-3.12,2.95-3.1,5.77-.62-2.75-2.76-5.01-4.31-4.92-1.55.11-3.49,2.64-3.85,5.47-.45-2.53-2.11-4.63-3.54-4.7-1.6-.05-3.95,2.4-4.61,5.28-.04-2.65-1.46-5.03-2.91-5.24-1.61-.22-4.34,2.05-5.35,4.91.24-2.93-1.3-5.74-2.89-5.98-1.66-.22-4.51,2.19-5.44,5.18-.09.32-.15.6-.19.85,2.75.73,5.53,1.22,8.18,1.47.01-.03.03-.06.04-.09,0,.04,0,.06,0,.1,1,.09,1.98.15,2.94.17,4.4.09,9.1.18,13.83.07,0-.04,0-.07.02-.11,0,.04.02.07.04.1,2.71-.07,5.43-.2,8.11-.45.05-.21.08-.45.09-.72.06.27.15.5.25.69,2.72-.26,5.39-.63,7.96-1.16.05-.25.06-.55.02-.89.12.32.27.58.44.79,2.7-.58,5.29-1.33,7.7-2.31,0-.2-.04-.42-.1-.67.11.21.24.4.37.55,2.61-1.09,7.24-4.24,7.29-4.28Z"/><path class="cls-4" d="M126.29,105.12c1.63,1.36,8.11-1.06,11.17-3.62.12-.11.23-.21.33-.31-3.3-1.75-6.24-3.66-9.08-5.65-1.95,2.9-3.88,8.34-2.42,9.58Z"/><path class="cls-4" d="M77.21,85.58c1.75.15,4.07-5.97,4.4-9.19.4,3.35,2.38,8.45,4.17,8.81,1.93.37,4.87-4.23,5.94-7.65-.33,3.6,1.37,10.1,3.25,10.68,1.89.56,5.15-4.43,6.67-7.67-.79,3.5-.96,8.7.85,9.47,1.82.75,6.78-2.45,8.71-5.47-1.24,3.36-.49,10.5,1.23,11.45,1.73.93,5.55-3.75,7.88-6.51-1.68,3.17-2.49,9.75-.87,10.87,1.59,1.07,6.53-2.52,9.22-4.85-5.7-4.02-11-8.44-18.08-12.88-2.58-1.62-5.31-3.05-8.09-4.24-.1.15-.2.32-.29.51.04-.21.07-.41.08-.6-3.29-1.39-6.68-2.43-10-3.02-.08.16-.15.34-.22.54.02-.2.02-.4,0-.58-6.83-1.16-20.04-4.18-25.12-.51.92,2.02,9.06,10.75,10.26,10.86Z"/><path class="cls-1" d="M209.96,112.85c-10.8-46.37,9.92-82.57-59.48-95.66-30.75-5.8-68.73,27.61-83.54,57.52,26.64-5.71,61.79,15.05,68.42,32.85,7.32,19.65-51.51,22.02-70.07,8.65-3.8,34.61-9.12,80.74-1.07,107.94,12.07,40.75,92.4,38.27,92.4,38.27,0,0,72.72,4.92,91.66-38.27,7.89-17.99-32.06-84.37-38.33-111.3Z"/><path class="cls-1" d="M117.27,244.59h-5.22v33.38c-3.22-1.63-7.58-2.89-12.4-2.89-9.88,0-17.9,5.28-17.9,8.2s8.01,2.37,17.9,2.37,17.9.55,17.9-2.37l-.28-38.69Z"/><path class="cls-1" d="M185.26,246.09h5.22v33.38c3.22-1.62,7.58-2.89,12.41-2.89,9.88,0,17.9,5.28,17.9,8.2s-8.01,2.37-17.9,2.37-17.9.55-17.9-2.37l.27-38.69Z"/><path class="cls-1" d="M38.72,184.97c-8.46,11.05-15.14,22.97-19.92,35.56l.07.05c2,1.96,8.9,8.31,8.59,11.36-.63,6.3-9.03,3.9-11.31-1.08.67,3.76-.97,9.33-5.3,9.08-6.13-.17-2.72-10.15-.44-13.22-3.11,2.54-11.11,7.89-10.37.5.41-4.11,8.24-6.55,12.81-8.44,3.47-9.49,8.06-19.17,13.83-28.24,9.95-15.62,28.16-33.92,41.97-43.66l16.4,2.5c-3.37.9-6.79,2.53-9.88,4.12-14.54,7.46-26.6,18.59-36.46,31.47Z"/><path class="cls-1" d="M288.45,218.55c2.64,2.77,7.23,12.26,1.17,13.18-4.27.76-6.58-4.56-6.37-8.37-1.66,5.22-9.71,8.62-11.1,2.44-.67-2.99,5.41-10.13,7.16-12.31l.06-.06c-6.27-11.92-14.34-22.95-24.07-32.89-11.35-11.59-24.67-21.18-40-26.83-3.26-1.2-6.86-2.41-10.3-2.89l15.98-4.46c14.89,7.99,35.18,23.96,46.94,38.26,6.83,8.3,12.56,17.36,17.15,26.35,4.77,1.33,12.83,2.8,13.74,6.83,1.63,7.25-6.96,2.91-10.36.76Z"/><path class="cls-1" d="M133.5,0c-12.15,0-22,9.85-22,22s9.85,22,22,22,22-9.85,22-22S145.65,0,133.5,0Z"/><path class="cls-1" d="M172.16,13.21c-12.15,0-22,9.85-22,22s9.85,22,22,22,22-9.85,22-22-9.85-22-22-22Z"/><path class="cls-4" d="M133.5,4.54c-9.64,0-17.45,7.81-17.45,17.45s7.81,17.45,17.45,17.45,17.45-7.81,17.45-17.45-7.81-17.45-17.45-17.45Z"/><path d="M122.75,16.48c-2.77.52-4.6,3.19-4.08,5.96.52,2.78,3.19,4.6,5.96,4.08,2.77-.52,4.6-3.19,4.08-5.96-.52-2.77-3.19-4.6-5.96-4.08Z"/><path class="cls-4" d="M124.64,18.36c-.7.13-1.16.81-1.03,1.51.13.7.81,1.16,1.51,1.03.7-.13,1.16-.8,1.03-1.51-.13-.7-.81-1.16-1.51-1.03Z"/><path class="cls-4" d="M172.4,17.1c-9.64,0-17.45,7.81-17.45,17.45s7.81,17.46,17.45,17.46,17.45-7.81,17.45-17.46-7.81-17.45-17.45-17.45Z"/><path d="M161.65,29.03c-2.77.52-4.6,3.19-4.08,5.96.52,2.77,3.19,4.6,5.96,4.08,2.77-.52,4.6-3.19,4.08-5.96-.52-2.77-3.19-4.6-5.96-4.08Z"/><path class="cls-4" d="M163.54,30.92c-.7.13-1.16.81-1.03,1.51.13.7.81,1.16,1.51,1.03.7-.13,1.16-.8,1.03-1.51-.13-.7-.81-1.16-1.51-1.03Z"/></g></svg>