<?xml version="1.0" encoding="UTF-8"?><svg id="_レイヤー_2" xmlns="http://www.w3.org/2000/svg" viewBox="0 0 145.04 34.97"><defs><style>.cls-1{fill:#6ab351;}</style></defs><g id="Layer_1"><path class="cls-1" d="M21.16,28c1.67,0,2.91-1.24,2.91-2.96,0-3.96-5.02-.1-5.02-4.49,0-3.49,7.21-3.73,9.65-3.73,8.98,0,9.51,2.53,9.51,3.92,0,1.24-1.05,2.1-2.2,2.29-1.24.14-1.34.38-1.67,1.62-1.86,6.97-8.6,10.32-15.38,10.32C8.84,34.97,0,27.95,0,17.39S8.55.14,18.78.14c4.2,0,6.5,1.29,7.74,1.29.86,0,2.1-.72,2.96-.72,2.96,0,4.73,4.87,4.73,7.31s-1.19,4.73-3.77,4.73c-4.73,0-4.73-6.64-11.23-6.64-4.16,0-6.83,3.44-6.83,8.5,0,9.84,5.73,13.38,8.79,13.38Z"/><path class="cls-1" d="M49.4,17.06c1.48-3.3,3.44-7.5,3.44-11.27,0-3.3,1.53-5.78,5.78-5.78s6.78,4.25,8.65,7.41c.81,1.39,8.03,16,9.75,19.92,1.58,3.63,4.16,1.43,4.16,4.16,0,3.49-6.78,3.34-9.17,3.34-6.83,0-10.94-.05-10.94-3.01,0-2.29,2.91-1.43,2.91-3.11,0-2.15-1.19-2.34-8.89-2.34-2.48,0-3.97.1-3.97,2.44,0,1.86,3.06.62,3.06,3.11,0,2.87-5.16,2.91-7.07,2.91-6.83,0-7.45-1.29-7.45-2.82,0-2.25,2.58-1.58,3.97-3.3,1.05-1.29,2.05-3.58,2.77-5.11l3.01-6.55ZM59.43,20.5c.48,0,1.91.09,1.91-.62s-1.39-3.2-1.77-3.87c-.43-.76-1.24-2.53-2.29-2.53-1.15,0-1.96,2.87-2.15,3.39-.19.53-1,2.39-1,2.96,0,.81,1.19.67,1.72.67h3.58Z"/><path class="cls-1" d="M101.66,30.67c-1,1.96-1.96,4.16-4.54,4.16-2.77,0-3.49-1.58-4.54-3.82l-9.51-21.02c-1.43-3.11-1.86-3.68-3.73-3.97-.96-.14-1.43-.86-1.43-1.86,0-3.68,7.6-3.87,10.03-3.87,10.03,0,9.65,2.39,9.65,3.11,0,1.82-2.29,1.91-2.29,3.2,0,1,1.86,4.73,3.01,7.21.43.81.96,2.67,2.01,2.72,1.58.1,2.39-2.58,2.96-3.58.57-1.15,2.77-5.45,2.77-6.59,0-1.72-2.44-1.24-2.44-3.15,0-2.96,6.02-2.91,7.93-2.91,6.02,0,7.02,1.1,7.02,2.77,0,1.29-.96,1.91-2.1,2.05-2.05.24-2.25.1-4.06,3.77l-10.75,21.79Z"/><path class="cls-1" d="M129.56,15.19c0-6.07-.48-7.45-1-8.12-1.1-1.39-2.96-1.53-2.96-3.34,0-3.44,9.75-3.44,10.7-3.44,2.87,0,8.74.09,8.74,3.34,0,1.72-1.82,1.62-2.91,2.87-.91,1.05-.96,5.35-.96,8.7v4.73c0,8.5.57,8.31,1.53,8.89,1.19.72,2.34.96,2.34,2.44s-.43,3.58-10.89,3.58c-2.01,0-8.03-.05-8.03-3.11,0-1.53,1.62-1.77,2.39-2.67.57-.67,1.05-2.44,1.05-9.12v-4.73Z"/></g></svg>